<svg xmlns="http://www.w3.org/2000/svg" width="38.109" height="22.083" viewBox="0 0 38.109 22.083">
  <g id="Group_76970" data-name="Group 76970" transform="translate(-297 -241.179)">
    <g id="svgexport-17_1_" data-name="svgexport-17 (1)" transform="translate(277 245.332)" opacity="0.5">
      <path id="Path_25638" data-name="Path 25638" d="M37.055,0a3.633,3.633,0,1,0,3.633,3.633A3.637,3.637,0,0,0,37.055,0Zm4.52,9.639a5.179,5.179,0,0,0-3.713-1.566H36.247a5.179,5.179,0,0,0-3.713,1.566A5.294,5.294,0,0,0,31,13.374a.4.4,0,0,0,.4.4h11.3a.4.4,0,0,0,.4-.4A5.294,5.294,0,0,0,41.574,9.639Z" transform="translate(15 0)" fill="#333"/>
    </g>
    <g id="svgexport-17_1_2" data-name="svgexport-17 (1)" transform="translate(251 245.332)" opacity="0.5">
      <path id="Path_25638-2" data-name="Path 25638" d="M37.055,0a3.633,3.633,0,1,0,3.633,3.633A3.637,3.637,0,0,0,37.055,0Zm4.52,9.639a5.179,5.179,0,0,0-3.713-1.566H36.247a5.179,5.179,0,0,0-3.713,1.566A5.294,5.294,0,0,0,31,13.374a.4.4,0,0,0,.4.4h11.3a.4.4,0,0,0,.4-.4A5.294,5.294,0,0,0,41.574,9.639Z" transform="translate(15 0)" fill="#333"/>
    </g>
    <g id="svgexport-17_1_3" data-name="svgexport-17 (1)" transform="translate(260 241.179)">
      <path id="Path_25638-3" data-name="Path 25638" d="M40.7,0a5.823,5.823,0,1,0,5.823,5.823A5.829,5.829,0,0,0,40.7,0Zm7.244,15.449A8.3,8.3,0,0,0,42,12.939H39.41a8.3,8.3,0,0,0-5.951,2.51A8.486,8.486,0,0,0,31,21.436a.647.647,0,0,0,.647.647H49.762a.647.647,0,0,0,.647-.647A8.486,8.486,0,0,0,47.949,15.449Z" transform="translate(15 0)" fill="#15ac8b"/>
    </g>
  </g>
</svg>
