<svg id="svgexport-6_-_2022-09-11T092655.895" data-name="svgexport-6 - 2022-09-11T092655.895" xmlns="http://www.w3.org/2000/svg" width="22.243" height="29.549" viewBox="0 0 22.243 29.549">
  <path id="Path_25150" data-name="Path 25150" d="M92.566,40.771c-.105.143-.718.508-2.6.816a40.027,40.027,0,0,1-6.169.426,40.065,40.065,0,0,1-6.169-.426c-1.878-.308-2.491-.673-2.6-.816.062-.078.39-.38,1.886-.688a30.609,30.609,0,0,1,4.57-.5,25.42,25.42,0,0,0,2.119,1.5.364.364,0,0,0,.385,0c.063-.04.886-.563,2.072-1.5a30.689,30.689,0,0,1,4.619.508c1.49.308,1.817.609,1.879.687ZM83.8,23.816a.942.942,0,0,0-.941.941c0,.014,0,2.968,0,4.02h1.881v-4.02A.942.942,0,0,0,83.8,23.816Zm.036-6.521a.363.363,0,0,1,.232.083l5.8,4.8.371-.448-6.394-5.286-6.493,5.139.361.456,5.894-4.665A.363.363,0,0,1,83.836,17.294Zm-.053,14.928a8.751,8.751,0,1,1,8.751-8.752A8.761,8.761,0,0,1,83.784,32.223ZM79.052,29.5h9.5a.364.364,0,0,0,.362-.323l.715-6.265.063.052a.364.364,0,0,0,.512-.049l.834-1.009a.364.364,0,0,0-.049-.512l-6.9-5.706a.364.364,0,0,0-.458,0l-7.01,5.548a.364.364,0,0,0-.06.511l.813,1.027a.364.364,0,0,0,.511.06l.075-.059.732,6.407a.364.364,0,0,0,.361.323Zm-.742,6.215c-2.569-2.711-5.63-7.017-5.63-12.135a11.121,11.121,0,0,1,22.243,0c0,5.005-3.063,9.318-5.632,12.054a33.8,33.8,0,0,1-5.492,4.7,32.36,32.36,0,0,1-5.488-4.616Zm5.474-2.769a9.479,9.479,0,1,0-9.479-9.48A9.49,9.49,0,0,0,83.784,32.951Zm.048-14.824-5.2,4.117.746,6.534h2.756c0-1.052,0-4.007,0-4.02a1.669,1.669,0,1,1,3.338,0v4.02h2.755l.732-6.413Z" transform="translate(-72.679 -12.464)" fill="#fff"/>
</svg>
