<svg xmlns="http://www.w3.org/2000/svg" width="166" height="48" viewBox="0 0 166 48">
  <g id="Pak_Logo" data-name="Pak Logo" transform="translate(-1633.697 -88.716)">
    <g id="Group_75451" data-name="Group 75451" transform="translate(1633.536 88.716)">
      <text id="Pakraqba.com" transform="translate(0.161 21)" fill="#fff" font-size="20" font-family="Tajawal-Bold, Tajawal" font-weight="700"><tspan x="0" y="0">Pakraqba.com</tspan></text>
      <text id="The_keys_to_your_home" data-name="The keys to your home" transform="translate(0.161 43)" fill="#fff" font-size="13" font-family="Tajawal-Medium, Tajawal" font-weight="500"><tspan x="0" y="0">The keys to your home</tspan></text>
    </g>
    <g id="svgexport-6_-_2022-09-11T092655.895" data-name="svgexport-6 - 2022-09-11T092655.895" transform="translate(1772.72 94.716)">
      <path id="Path_25150" data-name="Path 25150" d="M96.8,46.8c-.128.173-.871.617-3.149.99a48.546,48.546,0,0,1-7.482.517,48.593,48.593,0,0,1-7.482-.517c-2.278-.373-3.022-.817-3.149-.99.075-.095.473-.461,2.288-.835a37.124,37.124,0,0,1,5.543-.612,30.831,30.831,0,0,0,2.57,1.821.441.441,0,0,0,.466,0c.076-.048,1.074-.683,2.513-1.821a37.221,37.221,0,0,1,5.6.616c1.808.373,2.2.738,2.279.833ZM86.168,26.232a1.143,1.143,0,0,0-1.141,1.141c0,.017,0,3.6,0,4.876h2.281V27.373A1.143,1.143,0,0,0,86.168,26.232Zm.044-7.909a.441.441,0,0,1,.281.1l7.04,5.82.449-.544-7.755-6.411-7.875,6.233.438.553,7.148-5.658A.441.441,0,0,1,86.211,18.323Zm-.064,18.106A10.614,10.614,0,1,1,96.762,25.814,10.626,10.626,0,0,1,86.147,36.428Zm-5.739-3.3H91.927a.441.441,0,0,0,.439-.391l.868-7.6.077.063a.441.441,0,0,0,.622-.059l1.012-1.224a.441.441,0,0,0-.059-.622l-8.371-6.92a.441.441,0,0,0-.555-.006l-8.5,6.729a.441.441,0,0,0-.072.62l.986,1.245a.441.441,0,0,0,.62.072l.091-.072.887,7.771a.441.441,0,0,0,.438.391Zm-.9,7.538c-3.115-3.288-6.829-8.511-6.829-14.718a13.489,13.489,0,0,1,26.977,0c0,6.071-3.715,11.3-6.831,14.62a40.992,40.992,0,0,1-6.661,5.7,39.248,39.248,0,0,1-6.656-5.6Zm6.64-3.359a11.5,11.5,0,1,0-11.5-11.5A11.51,11.51,0,0,0,86.147,37.311Zm.058-17.98L79.9,24.325l.905,7.925h3.343c0-1.276,0-4.86,0-4.876a2.024,2.024,0,1,1,4.048,0v4.876h3.342l.888-7.779Z" transform="translate(-72.679 -12.464)" fill="#fff"/>
    </g>
  </g>
</svg>
