<svg xmlns="http://www.w3.org/2000/svg" width="98.897" height="131.382" viewBox="0 0 98.897 131.382">
  <path id="Path_25150" data-name="Path 25150" d="M161.1,138.322c-.468.634-3.192,2.26-11.545,3.629a177.972,177.972,0,0,1-27.427,1.9,178.14,178.14,0,0,1-27.427-1.9c-8.352-1.368-11.077-2.994-11.545-3.629.276-.348,1.733-1.69,8.386-3.061a136.089,136.089,0,0,1,20.32-2.242,113.028,113.028,0,0,0,9.42,6.677,1.618,1.618,0,0,0,1.71-.012c.28-.177,3.938-2.5,9.214-6.674a136.452,136.452,0,0,1,20.539,2.258c6.626,1.368,8.079,2.707,8.355,3.054ZM122.128,62.936a4.188,4.188,0,0,0-4.184,4.184c0,.062,0,13.2.005,17.875h8.362V67.12A4.189,4.189,0,0,0,122.128,62.936Zm.16-28.995a1.616,1.616,0,0,1,1.031.371l25.809,21.336,1.648-1.993-28.43-23.5L93.475,53l1.6,2.027,26.2-20.74A1.616,1.616,0,0,1,122.288,33.941Zm-.234,66.375A38.911,38.911,0,1,1,160.964,61.4,38.955,38.955,0,0,1,122.053,100.316Zm-21.04-12.084h42.229A1.618,1.618,0,0,0,144.85,86.8l3.181-27.856.282.233a1.618,1.618,0,0,0,2.278-.216l3.71-4.488a1.618,1.618,0,0,0-.216-2.278L123.4,26.824a1.618,1.618,0,0,0-2.035-.022L90.2,51.47a1.618,1.618,0,0,0-.265,2.274l3.614,4.565a1.618,1.618,0,0,0,2.273.265l.333-.263L99.406,86.8a1.618,1.618,0,0,0,1.607,1.435Zm-3.3,27.635c-11.421-12.055-25.034-31.2-25.034-53.954a49.449,49.449,0,0,1,98.9,0c0,22.255-13.618,41.429-25.042,53.6a150.265,150.265,0,0,1-24.419,20.879,143.879,143.879,0,0,1-24.4-20.522Zm24.34-12.314A42.148,42.148,0,1,0,79.906,61.4,42.2,42.2,0,0,0,122.053,103.553Zm.212-65.911L99.14,55.945,102.457,85h12.255c0-4.678-.005-17.815-.005-17.875a7.421,7.421,0,1,1,14.842,0V85H141.8l3.257-28.516Z" transform="translate(-72.679 -12.464)" fill="#15ac8b"/>
</svg>
