<svg xmlns="http://www.w3.org/2000/svg" width="25.187" height="25.178" viewBox="0 0 25.187 25.178">
  <g id="svgexport-17_2_" data-name="svgexport-17 (2)" transform="translate(0 -0.09)">
    <path id="Path_26253" data-name="Path 26253" d="M15.5,23.792h-.813a3.7,3.7,0,0,0-3.615-2.952h-5.9a3.7,3.7,0,0,0-3.615,2.952H.738a.738.738,0,0,0,0,1.476H15.5a.738.738,0,1,0,0-1.476Zm3.72-17.009L12.955.523A1.476,1.476,0,0,0,10.868,2.61l6.261,6.261a1.476,1.476,0,0,0,2.087-2.087ZM8.781,17.219,2.52,10.958A1.476,1.476,0,0,0,.433,13.045l6.261,6.261a1.476,1.476,0,0,0,2.087-2.087Zm-5.218-7.3L9.824,3.653l6.261,6.261L9.824,16.175ZM24.539,21.489l-1.05-1.139L20.358,23.48l1.05,1.139a2.214,2.214,0,1,0,3.131-3.131ZM17.491,14.45a1.455,1.455,0,0,0-.362-1.405,1.476,1.476,0,0,0-2.087,0l-2.087,2.087a1.476,1.476,0,0,0,0,2.087,1.455,1.455,0,0,0,1.405.362l4.954,4.856,3.131-3.131Z" transform="translate(0 0)" fill="#b3b3b3"/>
  </g>
</svg>
