<svg xmlns="http://www.w3.org/2000/svg" width="31.434" height="30.066" viewBox="0 0 31.434 30.066">
  <g id="svgexport-17_3_" data-name="svgexport-17 (3)" transform="translate(0 -10.67)">
    <circle id="Ellipse_1496" data-name="Ellipse 1496" cx="3.417" cy="3.417" r="3.417" transform="translate(21.867 33.903)" fill="#333"/>
    <circle id="Ellipse_1497" data-name="Ellipse 1497" cx="3.417" cy="3.417" r="3.417" transform="translate(8.2 33.903)" fill="#333"/>
    <path id="Path_26266" data-name="Path 26266" d="M111.127,74.9a.683.683,0,0,0-.512-.231h-24.6a.683.683,0,0,0-.67.82l2.733,13.667a.74.74,0,0,0,.76.547l20.5-2.733a.683.683,0,0,0,.588-.593l1.367-10.933A.683.683,0,0,0,111.127,74.9Z" transform="translate(-79.865 -59.901)" fill="#15ac8b"/>
    <path id="Path_26267" data-name="Path 26267" d="M151.432,126.678a.683.683,0,0,1-.674-.571l-1.367-8.2a.683.683,0,0,1,1.348-.224l1.367,8.2a.683.683,0,0,1-.562.786A.657.657,0,0,1,151.432,126.678Zm3.417-.683a.683.683,0,0,1-.683-.622l-.683-7.517a.683.683,0,0,1,.616-.744h.006a.683.683,0,0,1,.742.619h0l.683,7.517a.683.683,0,0,1-.619.742h0Zm3.417-.683a.683.683,0,0,1-.683-.683v-6.833a.683.683,0,0,1,1.367,0v6.833A.683.683,0,0,1,158.265,125.311Zm3.417-.683h-.077a.683.683,0,0,1-.608-.752v-.007l.683-6.15a.693.693,0,0,1,.758-.608.683.683,0,0,1,.6.754h0l-.683,6.15A.683.683,0,0,1,161.682,124.628Zm3.417-.683a.683.683,0,0,1-.663-.849l1.367-5.467a.683.683,0,1,1,1.333.3q0,.015-.008.031l-1.367,5.467A.683.683,0,0,1,165.1,123.944Z" transform="translate(-139.815 -99.608)" fill="#fafafa"/>
    <path id="Path_26268" data-name="Path 26268" d="M28.016,32.537H12.244a4.8,4.8,0,0,1-4.69-3.844L4.223,12.037H.683a.683.683,0,0,1,0-1.367h4.1a.683.683,0,0,1,.67.547L8.894,28.423a3.426,3.426,0,0,0,3.35,2.747H28.016a.683.683,0,0,1,0,1.367Z" transform="translate(0 0)" fill="#333"/>
  </g>
</svg>
