<svg xmlns="http://www.w3.org/2000/svg" width="19.148" height="14.808" viewBox="0 0 19.148 14.808">
  <g id="svgexport-17_16_" data-name="svgexport-17 (16)" transform="translate(0 -58.036)">
    <path id="Path_26015" data-name="Path 26015" d="M14.35,62.9a.561.561,0,0,1,.817-.767l.275.275V60.149a.991.991,0,1,0-1.982,0,.561.561,0,1,1-1.122,0,2.113,2.113,0,1,1,4.226,0V62.4l.275-.275a.561.561,0,0,1,.817.767ZM.561,64.018H18.587a.561.561,0,0,1,0,1.122h-.211q-.436,1.65-.873,3.3a4.214,4.214,0,0,1-2.48,2.851l.519.639a.561.561,0,1,1-.871.707l-.851-1.049c-.144.014-.29.022-.438.022H5.765c-.149,0-.3-.008-.442-.023l-.851,1.049a.561.561,0,1,1-.871-.707l.52-.641a4.214,4.214,0,0,1-2.477-2.851q-.437-1.65-.877-3.3H.561a.561.561,0,0,1,0-1.122Z" transform="translate(0)" fill="#6c6c6c"/>
  </g>
</svg>
