<svg xmlns="http://www.w3.org/2000/svg" width="18.872" height="18.912" viewBox="0 0 18.872 18.912">
  <path id="Path_26242" data-name="Path 26242" d="M18.917,13.88,16.277,11.24a1.755,1.755,0,0,0-2.922.66,1.8,1.8,0,0,1-2.074,1.131,8.139,8.139,0,0,1-4.9-4.9A1.708,1.708,0,0,1,7.511,6.056a1.755,1.755,0,0,0,.66-2.922L5.532.495a1.883,1.883,0,0,0-2.545,0L1.2,2.286C-.595,4.171,1.385,9.167,5.815,13.6s9.426,6.5,11.311,4.619l1.791-1.791a1.882,1.882,0,0,0,0-2.545Z" transform="translate(-0.539 0)" fill="#b3b3b3"/>
</svg>
