<svg xmlns="http://www.w3.org/2000/svg" width="16.86" height="16.858" viewBox="0 0 16.86 16.858">
  <g id="svgexport-17_6_" data-name="svgexport-17 (6)" transform="translate(0 -0.019)">
    <path id="Path_25642" data-name="Path 25642" d="M6.732.019H2.9V2.354l3.829-.638Zm8.429,15.87V4.836H8.924V15.889H7.936V2.516L1.7,3.556V15.889H0v.988H16.86v-.988ZM12.722,6.256h1.049v.988H12.722Zm0,2.408h1.049v.988H12.722Zm0,2.408h1.049v.988H12.722Zm0,2.408h1.049v.988H12.722ZM10.313,6.256h1.049v.988H10.313Zm0,2.408h1.049v.988H10.313Zm0,2.408h1.049v.988H10.313Zm0,2.408h1.049v.988H10.313ZM5.5,3.848H6.546v.988H5.5Zm0,2.408H6.546v.988H5.5Zm0,2.408H6.546v.988H5.5Zm0,2.408H6.546v.988H5.5ZM3.088,6.256H4.138v.988H3.088Zm0,2.408H4.138v.988H3.088Zm0,2.408H4.138v.988H3.088Zm.031,2.408h3.4v2.408H5.528v-1.42H4.107v1.42H3.119Z" fill="#6c6c6c"/>
  </g>
</svg>
