<svg xmlns="http://www.w3.org/2000/svg" width="38.392" height="38.313" viewBox="0 0 38.392 38.313">
  <g id="svgexport-17_1_" data-name="svgexport-17 (1)" transform="translate(-7.999 -8.509)">
    <g id="Group_76844" data-name="Group 76844" transform="translate(7.999 8.509)">
      <path id="Path_26255" data-name="Path 26255" d="M293.048,16.5h11.23a.748.748,0,0,1,.547.227l2.991,2.991a.748.748,0,0,1,.227.547V39.212a.776.776,0,0,1-.774.774h-14.22a.776.776,0,0,1-.774-.774V17.279A.776.776,0,0,1,293.048,16.5Z" transform="translate(-270.27 -15.886)" fill="#eceff1" fill-rule="evenodd"/>
      <g id="Group_76842" data-name="Group 76842" transform="translate(22.004 0.619)">
        <path id="Path_26256" data-name="Path 26256" d="M293.048,16.5h.82V39.986h-.82a.776.776,0,0,1-.774-.774V17.279A.776.776,0,0,1,293.048,16.5Zm11.55,2.9V16.572a.776.776,0,0,1,.227.16l2.991,2.991a.776.776,0,0,1,.16.227h-2.835A.543.543,0,0,1,304.6,19.407Z" transform="translate(-292.274 -16.505)" fill="#d1d1d6" fill-rule="evenodd"/>
      </g>
      <path id="Path_26257" data-name="Path 26257" d="M30.995,16.5H19.765a.748.748,0,0,0-.547.227l-2.991,2.991A.748.748,0,0,0,16,20.27V39.212a.776.776,0,0,0,.774.774h14.22a.776.776,0,0,0,.774-.774V17.279A.776.776,0,0,0,30.995,16.5Z" transform="translate(-15.381 -15.886)" fill="#eceff1" fill-rule="evenodd"/>
      <g id="Group_76843" data-name="Group 76843" transform="translate(0.686 0.619)">
        <path id="Path_26258" data-name="Path 26258" d="M31.795,16.5h-.82V39.986h.82a.776.776,0,0,0,.774-.774V17.279A.776.776,0,0,0,31.795,16.5Zm-11.55,2.9V16.572a.776.776,0,0,0-.227.16l-2.991,2.991a.778.778,0,0,0-.16.227H19.7A.543.543,0,0,0,20.244,19.407Z" transform="translate(-16.867 -16.505)" fill="#d1d1d6" fill-rule="evenodd"/>
      </g>
      <path id="Path_26259" data-name="Path 26259" d="M248.684,340.173l2.061-.12-.088-5.845-2.063.01Z" transform="translate(-229.971 -308.998)" fill="#a79ba7" fill-rule="evenodd"/>
      <path id="Path_26260" data-name="Path 26260" d="M250.271,340.08l.473-.027-.088-5.845-2.063.01,0,.158,1.59-.008Z" transform="translate(-229.97 -308.997)" fill="#837683" fill-rule="evenodd"/>
      <path id="Path_26261" data-name="Path 26261" d="M238.1,402.789l2.328-.035a.745.745,0,0,0,.732-.754l-.094-6.256a.746.746,0,0,0-.754-.732l-2.328.035a.746.746,0,0,0-.732.754l.094,6.256A.745.745,0,0,0,238.1,402.789Z" transform="translate(-219.504 -365.095)" fill="#15ac8b" fill-rule="evenodd"/>
      <path id="Path_26262" data-name="Path 26262" d="M238.1,403.3l2.328-.035a.746.746,0,0,0,.724-.634.726.726,0,0,1-.1.008l-2.328.035a.745.745,0,0,1-.754-.732l-.094-6.256a.737.737,0,0,1,.008-.12.746.746,0,0,0-.634.746l.094,6.256A.746.746,0,0,0,238.1,403.3Z" transform="translate(-219.504 -365.61)" fill="#3df9cf" fill-rule="evenodd"/>
      <circle id="Ellipse_51" data-name="Ellipse 51" cx="8.176" cy="8.176" r="8.176" transform="translate(11.019 10.119)" fill="#15ac8b"/>
      <path id="Path_26263" data-name="Path 26263" d="M189.238,166.547a8.177,8.177,0,0,1-11.563,11.563q-.156-.157-.3-.321a8.176,8.176,0,0,0,11.546-11.546Q189.081,166.391,189.238,166.547Z" transform="translate(-164.26 -154.034)" fill="#41ffd5" fill-rule="evenodd"/>
      <circle id="Ellipse_52" data-name="Ellipse 52" cx="5.805" cy="5.805" r="5.805" transform="translate(13.391 12.49)" fill="#eceff1"/>
      <path id="Path_26264" data-name="Path 26264" d="M190.908,171.57q.121.121.235.25a5.805,5.805,0,0,0-8.2,8.2q-.128-.114-.25-.235a5.805,5.805,0,0,1,8.21-8.21Z" transform="translate(-167.607 -157.38)" fill="#d1d1d6" fill-rule="evenodd"/>
      <path id="Path_26265" data-name="Path 26265" d="M32.381,26.8a5.186,5.186,0,1,0-5.186,5.186A5.192,5.192,0,0,0,32.381,26.8Zm-5.186,6.424A6.424,6.424,0,1,1,33.619,26.8,6.431,6.431,0,0,1,27.195,33.229ZM42.716,16.566H33.058a.619.619,0,0,0,0,1.239h9.658a.619.619,0,0,0,0-1.239Zm-9.658-2.712h6.67a.619.619,0,1,0,0-1.238h-6.67a.619.619,0,1,0,0,1.238ZM45.152,31.99H34.294a8.772,8.772,0,0,0,1.222-2.336h7.2a.619.619,0,1,0,0-1.238H35.842a8.834,8.834,0,0,0,.08-2.711h6.794a.619.619,0,0,0,0-1.239H35.674a8.767,8.767,0,0,0-1.282-2.712h8.324a.619.619,0,1,0,0-1.238H33.338A8.824,8.824,0,0,0,30.622,18.7V9.748H41.708v2.825a.619.619,0,0,0,.619.619h2.825v18.8ZM28.093,35.554q-.407.042-.824.045l.034,2.229.824-.012Zm.94,9.868-.094-6.255a.126.126,0,0,0-.124-.122h0l-2.328.035a.124.124,0,0,0-.087.039.121.121,0,0,0-.036.087l.094,6.256a.128.128,0,0,0,.126.122l2.328-.035a.126.126,0,0,0,.122-.126ZM27.195,34.362a7.557,7.557,0,1,1,5.335-12.9.621.621,0,0,0,.188.195,7.553,7.553,0,0,1-5.523,12.71ZM9.237,31.99v-18.8h2.825a.619.619,0,0,0,.619-.619V9.748H23.768V18.7a8.824,8.824,0,0,0-2.716,1.812H11.674a.619.619,0,1,0,0,1.238H20a8.766,8.766,0,0,0-1.282,2.712H11.674a.619.619,0,1,0,0,1.239h6.794a8.821,8.821,0,0,0,.08,2.711H11.674a.619.619,0,1,0,0,1.238h7.2A8.773,8.773,0,0,0,20.1,31.99H9.237Zm.876-20.037h1.33v-1.33Zm32.833,0h1.33l-1.33-1.33Zm3.444.619V32.609a.619.619,0,0,1-.619.619H33.2a8.786,8.786,0,0,1-3.867,2.109l.039,2.586a1.376,1.376,0,0,1,.4.268,1.351,1.351,0,0,1,.414.956l.094,6.256a1.365,1.365,0,0,1-1.342,1.383l-2.327.035h-.021a1.364,1.364,0,0,1-1.362-1.342l-.094-6.255a1.367,1.367,0,0,1,.941-1.316l-.036-2.386a8.769,8.769,0,0,1-4.835-2.294H8.618A.619.619,0,0,1,8,32.609V12.573a.62.62,0,0,1,.181-.438L11.625,8.69a.619.619,0,0,1,.438-.181H24.387a.619.619,0,0,1,.619.619v9.156a8.821,8.821,0,0,1,4.377,0V9.128A.619.619,0,0,1,30,8.509H42.327a.619.619,0,0,1,.438.181l3.444,3.444a.619.619,0,0,1,.181.438ZM11.674,17.8h9.658a.619.619,0,0,0,0-1.239H11.674a.619.619,0,0,0,0,1.239Zm2.368-4.569a.619.619,0,0,0,.619.619h6.671a.619.619,0,1,0,0-1.238H14.661a.619.619,0,0,0-.619.619Z" transform="translate(-7.999 -8.509)" fill-rule="evenodd"/>
    </g>
  </g>
</svg>
