<svg xmlns="http://www.w3.org/2000/svg" width="12.798" height="15.995" viewBox="0 0 12.798 15.995">
  <g id="svgexport-17_30_" data-name="svgexport-17 (30)" transform="translate(-51.171 -0.006)">
    <path id="Path_26148" data-name="Path 26148" d="M54.908.45a.444.444,0,0,1,.444-.444h4.436a.445.445,0,0,1,.444.444v1.1H54.908ZM62.2,15.366a.68.68,0,0,1-.683.635H53.57a.686.686,0,0,1-.683-.638l-.68-9.951H62.928L62.2,15.366ZM63.969,4.511h-12.8V3.48A1.032,1.032,0,0,1,52.2,2.449H62.938A1.033,1.033,0,0,1,63.969,3.48V4.511Zm-8.46,9.118a.451.451,0,0,0,.9,0V7.311a.45.45,0,1,0-.9,0v6.319Zm3.215,0a.451.451,0,1,0,.9,0V7.311a.451.451,0,1,0-.9,0Z" transform="translate(0 0)" fill="#fc0005" fill-rule="evenodd"/>
  </g>
</svg>
