<svg xmlns="http://www.w3.org/2000/svg" width="26.192" height="22.404" viewBox="0 0 26.192 22.404">
  <g id="svgexport-17_24_" data-name="svgexport-17 (24)" transform="translate(-4 -8.1)">
    <path id="Path_26033" data-name="Path 26033" d="M4,25.876a3.27,3.27,0,0,1,1.871-.951V8.1A2.342,2.342,0,0,0,4,10.392ZM25.515,16.9V14.6h-2.3A2.81,2.81,0,0,0,25.515,16.9Zm4.677-6.506A2.342,2.342,0,0,0,28.322,8.1V24.924a3.27,3.27,0,0,1,1.871.951Z" fill="#15ac8b"/>
    <path id="Path_26034" data-name="Path 26034" d="M6.24,33.644H27.952a2.245,2.245,0,0,0,2.24-2.24v-.1a2.341,2.341,0,0,0-2.339-2.339.468.468,0,0,1-.468-.468V14H6.806V28.5a.468.468,0,0,1-.468.468A2.341,2.341,0,0,0,4,31.306v.1a2.245,2.245,0,0,0,2.24,2.242Zm1.5-12.628a.468.468,0,0,1,.468-.468h3.742V17.274a.468.468,0,0,1,.468-.468H25.983a.468.468,0,0,1,.468.468v13.1a.468.468,0,0,1-.468.468H21.773a.468.468,0,1,1,0-.935h3.742V20.984a3.746,3.746,0,0,1-3.242-3.242H19.9v3.742a.468.468,0,1,1-.935,0V17.742h-6.08v3.274a.468.468,0,0,1-.468.468H8.677v3.742h3.742a.468.468,0,1,1,0,.935H8.677V29.9H14.29V28.032a.468.468,0,0,1,.935,0V29.9h3.742V24.29H15.225v1.871a.468.468,0,0,1-.935,0V23.822a.468.468,0,0,1,.468-.468h8.419a.468.468,0,1,1,0,.935H19.9v6.08a.468.468,0,0,1-.468.468H8.209a.468.468,0,0,1-.468-.468Z" transform="translate(0 -3.14)"/>
  </g>
</svg>
