<svg xmlns="http://www.w3.org/2000/svg" width="21.658" height="16.244" viewBox="0 0 21.658 16.244">
  <path id="Path_26232" data-name="Path 26232" d="M5.853,30.244H23.806a1.856,1.856,0,0,0,1.853-1.853V28.31a1.936,1.936,0,0,0-1.934-1.934.387.387,0,0,1-.387-.387V14H6.321V25.989a.387.387,0,0,1-.387.387A1.936,1.936,0,0,0,4,28.31v.08a1.856,1.856,0,0,0,1.853,1.854ZM7.094,19.8a.387.387,0,0,1,.387-.387h3.094V16.707a.387.387,0,0,1,.387-.387H22.177a.387.387,0,0,1,.387.387V27.536a.387.387,0,0,1-.387.387H18.7a.387.387,0,0,1,0-.774h3.094V19.775a3.1,3.1,0,0,1-2.681-2.681H17.15v3.094a.387.387,0,0,1-.774,0V17.094H11.348V19.8a.387.387,0,0,1-.387.387H7.868v3.094h3.094a.387.387,0,0,1,0,.774H7.868V27.15h4.641V25.6a.387.387,0,0,1,.774,0V27.15h3.094V22.509H13.282v1.547a.387.387,0,0,1-.774,0V22.122a.387.387,0,0,1,.387-.387h6.962a.387.387,0,1,1,0,.774H17.15v5.028a.387.387,0,0,1-.387.387H7.481a.387.387,0,0,1-.387-.387Z" transform="translate(-4 -14)" fill="#b3b3b3"/>
</svg>
