<svg xmlns="http://www.w3.org/2000/svg" width="12.109" height="12.11" viewBox="0 0 12.109 12.11">
  <g id="Group_76937" data-name="Group 76937" transform="translate(0.001)">
    <path id="Path_26277" data-name="Path 26277" d="M27.4,22.672a.481.481,0,0,1-.337-.816l5.406-5.407a.478.478,0,1,1,.676.676l-5.406,5.407a.476.476,0,0,1-.338.14Z" transform="translate(-23.546 -13.943)" fill="#6b6b6b"/>
    <path id="Path_26278" data-name="Path 26278" d="M45.117,14.319a4,4,0,0,0-2.691-1.154.472.472,0,0,0-.35.14l-6.751,6.752a.557.557,0,0,0-.135.238l-1.013,4.393a.481.481,0,0,0,.573.573l4.393-1.014a.568.568,0,0,0,.23-.128l6.758-6.759a.478.478,0,0,0,.14-.349,3.992,3.992,0,0,0-1.154-2.692Zm-7.773,9.362a3.864,3.864,0,0,0-1.588-1.59l.271-1.174a2.956,2.956,0,0,1,2.5,2.492l-1.178.272Zm2.015-.9a3.844,3.844,0,0,0-2.708-2.7l5.949-5.95a2.967,2.967,0,0,1,2.7,2.7L39.359,22.78Z" transform="translate(-34.163 -13.165)" fill="#6b6b6b"/>
  </g>
</svg>
