<svg xmlns="http://www.w3.org/2000/svg" width="16.016" height="11.261" viewBox="0 0 16.016 11.261">
  <g id="svgexport-17_8_" data-name="svgexport-17 (8)" transform="translate(0 -76)">
    <path id="Path_26078" data-name="Path 26078" d="M35.784,277.251,34.442,278.6a1.485,1.485,0,0,1-2.057,0l-1.341-1.346-4.818,4.834a1.394,1.394,0,0,0,.587.132h13.2a1.393,1.393,0,0,0,.587-.132Z" transform="translate(-25.406 -194.955)" fill="#6c6c6c"/>
    <path id="Path_26079" data-name="Path 26079" d="M14.609,76H1.408a1.393,1.393,0,0,0-.587.132L5.969,81.3h0l1.674,1.68a.563.563,0,0,0,.728,0L10.046,81.3h0L15.2,76.132A1.393,1.393,0,0,0,14.609,76ZM.15,76.789a1.39,1.39,0,0,0-.15.619v8.446a1.39,1.39,0,0,0,.15.619l4.826-4.842Zm15.717,0L11.04,81.631l4.826,4.842a1.39,1.39,0,0,0,.15-.619V77.408A1.39,1.39,0,0,0,15.867,76.789Z" transform="translate(0)" fill="#6c6c6c"/>
  </g>
</svg>
