<svg xmlns="http://www.w3.org/2000/svg" width="132.265" height="163.016" viewBox="0 0 132.265 163.016">
  <g id="svgexport-6" transform="translate(-102.245 -6.745)">
    <path id="Path_26152" data-name="Path 26152" d="M177.234,81.03l27.687,132.22-2.656.681c-1.3.333-2.732-.887-3.2-2.725l-7.054-27.514-13.99-54.566q-3.449-13.45-6.9-26.9c-1.137-4.431-2.743-8.978-3.46-13.493-.506-3.186.888-5.011,3.815-6.217.455-.188,4.9-1.339,5.764-1.486Z" transform="translate(-65.308 -44.225)" fill="#bf3561"/>
    <path id="Path_26153" data-name="Path 26153" d="M244.661,43.131a6.087,6.087,0,0,1,7.387,4.372l30.6,119.355a6.087,6.087,0,0,1-4.372,7.387l-67.823,17.388a6.087,6.087,0,0,1-7.387-4.372l-30.6-119.355a6.087,6.087,0,0,1,4.372-7.387l67.823-17.388Z" transform="translate(-67.938 -23.013)" fill="#4f021b"/>
    <path id="Path_26154" data-name="Path 26154" d="M0,0H66.364V118.5H0Z" transform="translate(114.358 44.361) rotate(-14.373)" fill="#acf1e2"/>
    <path id="Path_26155" data-name="Path 26155" d="M271.681,65.028a1.877,1.877,0,1,1-2.285-1.352A1.877,1.877,0,0,1,271.681,65.028Z" transform="translate(-121.241 -34.527)" fill="#ffd1d0"/>
    <path id="Path_26156" data-name="Path 26156" d="M317.364,344.946a2.309,2.309,0,0,1-.574-4.544l18.691-4.792a2.308,2.308,0,1,1,1.147,4.471l-18.691,4.792a2.313,2.313,0,0,1-.572.073Zm18.69-9.275a2.174,2.174,0,0,0-.539.068l-18.691,4.792a2.175,2.175,0,0,0,1.08,4.213l18.691-4.792a2.176,2.176,0,0,0-.541-4.281Z" transform="translate(-147.456 -185.967)" fill="#ffacb3"/>
    <path id="Path_26157" data-name="Path 26157" d="M257.619,60.885l29.671,115.73-.809.207L257.046,62.013,192.347,78.6l-.236-.921Z" transform="translate(-78.985 -33.006)" fill="#ffc0c0"/>
    <path id="Path_26160" data-name="Path 26160" d="M273.014,139.53c-3.711-3.793-7.966.643-8.522,1.161-.45-.667-3.583-5.846-7.995-2.956-6.525,4.274,6.191,16.445,6.53,16.767v.006l0,0,0,0V154.5C263.434,154.262,278.468,145.106,273.014,139.53ZM195.689,42.64c-5.857.414-5.16,7.18-5.122,8.02-.885-.1-7.5-1.163-8.218,4.628-1.066,8.564,18.305,6.552,18.82,6.5l0,0v-.006h.005l0,0C201.258,61.269,204.3,42.031,195.689,42.64ZM291,23.056c-4.028-4.362-8.929.463-9.568,1.024-.481-.761-3.818-6.653-8.846-3.564-7.435,4.569,6.393,18.591,6.762,18.962v.007l0,0,0,0V39.48c.454-.257,17.563-10.012,11.643-16.424Z" transform="translate(-73.524 -10.028)" fill="rgba(255,0,25,0.91)"/>
    <path id="Path_26161" data-name="Path 26161" d="M349.711,16.736a3.411,3.411,0,0,0,2.094,1.389l3.759.618c.769.127.838.542.152.924l-3.348,1.866a3.512,3.512,0,0,0-1.53,2.025l-.765,3.58c-.157.732-.6.81-.981.172l-1.872-3.117a3.41,3.41,0,0,0-2.094-1.389l-3.759-.618c-.769-.127-.837-.542-.152-.924l3.349-1.866a3.512,3.512,0,0,0,1.53-2.025l.765-3.58c.156-.732.6-.81.981-.172l1.872,3.117Zm32.862,94.292a2.688,2.688,0,0,0,1.768.891l3,.132c.613.027.706.346.206.708l-2.444,1.773a2.769,2.769,0,0,0-1.007,1.727l-.263,2.872c-.054.587-.392.689-.751.226l-1.755-2.262a2.688,2.688,0,0,0-1.768-.891l-3-.132c-.613-.027-.706-.346-.206-.708l2.444-1.773a2.768,2.768,0,0,0,1.007-1.728l.264-2.871c.054-.588.392-.689.751-.226ZM390.3,125.8a3.608,3.608,0,0,0,1.763,1.99l3.674,1.655c.751.339.708.782-.1.986l-3.931,1a3.715,3.715,0,0,0-2.115,1.654l-1.756,3.451c-.359.706-.831.665-1.049-.091l-1.064-3.695a3.609,3.609,0,0,0-1.763-1.99l-3.674-1.654c-.751-.339-.708-.782.1-.986l3.93-1a3.715,3.715,0,0,0,2.115-1.654l1.756-3.451c.359-.706.832-.665,1.049.091Z" transform="translate(-161.762 -6.442)" fill="#ffdcbd"/>
    <path id="Path_26162" data-name="Path 26162" d="M277.715,287.755a3.793,3.793,0,0,0,2.328,1.545l4.179.687c.855.14.931.6.17,1.027l-3.723,2.074a3.9,3.9,0,0,0-1.7,2.252l-.851,3.98c-.174.814-.665.9-1.09.191l-2.08-3.465a3.793,3.793,0,0,0-2.328-1.544l-4.179-.687c-.855-.14-.931-.6-.17-1.027l3.723-2.075a3.906,3.906,0,0,0,1.7-2.252l.851-3.98c.174-.814.665-.9,1.09-.191Z" transform="translate(-121.108 -157.159)" fill="#fff"/>
    <path id="Path_26170" data-name="Path 26170" d="M181.1,203.949a15.248,15.248,0,0,1-.829,6.218,6.085,6.085,0,0,1-4.6,3.885,3.843,3.843,0,0,1-2.628-.615c-.294-10.551.074-19.583,4.567-22.945a10.218,10.218,0,0,1,.8,1.214c2.066,3.678,2.6,8.021,2.689,12.242Z" transform="translate(-68.325 -105.188)" fill="#ffe7e7"/>
    <path id="Path_26173" data-name="Path 26173" d="M285.1,69.469c-1.155.275-2.3.577-3.406.862a205.959,205.959,0,0,0-30.064,10.233c-7.7,3.3-15.969,6.529-21.716,12.906-6.771,7.515-6.538,18.209-4.826,27.545a95.311,95.311,0,0,0,12.667,32.093,11.625,11.625,0,0,0,4.958,4.9c4.532,1.988,10.5-.132,14.993-1.267a81.208,81.208,0,0,0,10.244-3.269L265.663,170.1l19.151-21.124A108.061,108.061,0,0,0,304.87,141.7c5.183-2.5,10.431-5.332,12.732-10.958,3.081-7.531-.273-17.421-2.553-24.8-2.475-8.012-5.307-15.911-8.324-23.735-1.682-4.361-3.767-9.231-7.881-11.834-4.231-2.675-9.11-2.01-13.745-.906Z" transform="translate(-96.783 -37.249)" fill="#15ac8b"/>
    <path id="Path_26175" data-name="Path 26175" d="M318.468,107.957c-13.428-5.112-18.852,10.623-19.631,12.528-1.863-1.13-15.444-10.3-23.01,1.809-11.188,17.913,33.887,33.4,35.086,33.807l.005.016.008-.012.013,0-.005-.016c.708-1.046,27.273-40.622,7.535-48.137Z" transform="translate(-124.616 -58.656)" fill="rgba(255,0,25,0.91)"/>
  </g>
</svg>
