<svg xmlns="http://www.w3.org/2000/svg" width="147.153" height="135.429" viewBox="0 0 147.153 135.429">
  <g id="svgexport-6_1_" data-name="svgexport-6 (1)" transform="translate(0 -17.334)">
    <path id="Path_26176" data-name="Path 26176" d="M9.866,107.87s-.687-5.216,4.333-3.528,3.385,6.463,1.471,4.829,1.677-7.177,5.519-4.709,2.983,7.257.258,7.61,1.65-5.576,5.083-1.914S22.467,120.5,19.4,118.042s-.667-6.417.069-4-1.248,4.782-6.684,4.689-2.962-8.458-1.062-6.023-1.255,5.183-5.09,2.314.54-8.8,3.231-7.15Z" transform="translate(-3.654 -61.641)" fill="#fff"/>
    <path id="Path_26177" data-name="Path 26177" d="M12.221,118.216l-.315,0A3.4,3.4,0,0,1,8.427,115.7a6.2,6.2,0,0,1-2.876-1.261,3.973,3.973,0,0,1-1.4-4.681c.631-1.9,2.31-3.381,3.824-3.381a2.285,2.285,0,0,1,.632.087,4.3,4.3,0,0,1,.841-2.8c.822-.939,2.178-1.12,3.983-.512a6.851,6.851,0,0,1,1.819.906,4.288,4.288,0,0,1,3.068-1.428,4.008,4.008,0,0,1,2.181.679,5.687,5.687,0,0,1,2.751,4.444,3.742,3.742,0,0,1,2.655,1.307,3.784,3.784,0,0,1,.555,4.313c-1.081,2.5-4.034,4.686-6.32,4.687h0a2.856,2.856,0,0,1-1.834-.606,4.937,4.937,0,0,1-.647-.62,9.087,9.087,0,0,1-5.442,1.386Zm-3.055-2.492a2.667,2.667,0,0,0,2.752,1.793l.3,0c2.734,0,4.227-.641,5.028-1.25a3.6,3.6,0,0,1-.281-3.43,1.184,1.184,0,0,1,.981-.763c.252,0,.715.13.981,1a3.272,3.272,0,0,1-.748,3.291,4.233,4.233,0,0,0,.563.541,2.176,2.176,0,0,0,1.4.453h0c2.006,0,4.713-2.034,5.68-4.267a3.129,3.129,0,0,0-.424-3.56,3.079,3.079,0,0,0-2.164-1.087,3.232,3.232,0,0,1-2.62,3.109c-.922.122-1.228-.362-1.245-.807-.04-.983,1.376-2.634,3.187-2.947a4.992,4.992,0,0,0-2.432-3.909,3.306,3.306,0,0,0-4.333.607,3.341,3.341,0,0,1,1.076,3.444,1.423,1.423,0,0,1-1.291,1.048,1.572,1.572,0,0,1-1.009-.419c-1.057-.9-.715-2.663.239-3.981a6.209,6.209,0,0,0-1.595-.783c-1.515-.509-2.6-.412-3.236.31a4.2,4.2,0,0,0-.641,2.843.348.348,0,0,1-.527.342,1.57,1.57,0,0,0-.83-.233c-1.211,0-2.631,1.3-3.163,2.9a3.349,3.349,0,0,0,1.153,3.9,5.712,5.712,0,0,0,2.317,1.092,4.813,4.813,0,0,1,.8-3.344,1.342,1.342,0,0,1,1.026-.576,1.28,1.28,0,0,1,1.009.578,2.492,2.492,0,0,1,.421,2.676A2.742,2.742,0,0,1,9.166,115.723Zm8.783-2.951c-.065,0-.219.1-.36.381a2.909,2.909,0,0,0,.181,2.628,2.562,2.562,0,0,0,.493-2.5C18.151,112.91,18.01,112.772,17.949,112.772Zm-7.833-1.027a.7.7,0,0,0-.483.317A4.232,4.232,0,0,0,9,115.033,2.1,2.1,0,0,0,10.919,114a1.822,1.822,0,0,0-.344-1.942A.683.683,0,0,0,10.116,111.746Zm12.412-3.231a3.25,3.25,0,0,0-2.46,2.2c0,.067.006.158.284.158a1.347,1.347,0,0,0,.176-.012A2.518,2.518,0,0,0,22.527,108.514Zm-7.182-3.48c-.823,1.147-.98,2.448-.325,3.008a.68.68,0,0,0,1.192-.334,2.636,2.636,0,0,0-.868-2.674Z" transform="translate(-2.779 -60.777)" fill="#241726"/>
    <path id="Path_26178" data-name="Path 26178" d="M434.75,311.121s-.687-5.216,4.334-3.528,3.385,6.463,1.471,4.829,1.677-7.177,5.519-4.709,2.983,7.257.258,7.61,1.65-5.576,5.083-1.914-4.062,10.339-7.128,7.884-.667-6.417.069-4-1.248,4.783-6.684,4.689-2.962-8.458-1.062-6.023-1.255,5.182-5.09,2.314S432.059,309.473,434.75,311.121Z" transform="translate(-306.416 -206.472)" fill="#fff"/>
    <path id="Path_26179" data-name="Path 26179" d="M437.1,321.468l-.315,0a3.4,3.4,0,0,1-3.478-2.517,6.2,6.2,0,0,1-2.876-1.261,3.973,3.973,0,0,1-1.4-4.681c.631-1.9,2.31-3.381,3.824-3.381a2.284,2.284,0,0,1,.632.087,4.3,4.3,0,0,1,.841-2.8c.824-.937,2.176-1.119,3.983-.512a6.854,6.854,0,0,1,1.819.906,4.287,4.287,0,0,1,3.068-1.428,4.008,4.008,0,0,1,2.181.679A5.687,5.687,0,0,1,448.138,311a3.74,3.74,0,0,1,2.655,1.307,3.783,3.783,0,0,1,.555,4.313c-1.081,2.5-4.035,4.686-6.32,4.686a2.854,2.854,0,0,1-1.835-.606,4.951,4.951,0,0,1-.647-.62A9.086,9.086,0,0,1,437.1,321.468Zm-3.055-2.493a2.667,2.667,0,0,0,2.752,1.793l.3,0c2.734,0,4.227-.641,5.028-1.25a3.6,3.6,0,0,1-.281-3.43,1.184,1.184,0,0,1,.981-.763c.252,0,.715.13.981,1a3.273,3.273,0,0,1-.748,3.291,4.243,4.243,0,0,0,.563.541,2.176,2.176,0,0,0,1.4.453c2.006,0,4.714-2.033,5.68-4.266a3.129,3.129,0,0,0-.424-3.56,3.079,3.079,0,0,0-2.164-1.087,3.232,3.232,0,0,1-2.62,3.109c-.913.122-1.228-.361-1.246-.807-.039-.982,1.376-2.633,3.187-2.947a4.992,4.992,0,0,0-2.432-3.909,3.308,3.308,0,0,0-4.333.607,3.34,3.34,0,0,1,1.076,3.444,1.422,1.422,0,0,1-1.29,1.048h0a1.574,1.574,0,0,1-1.009-.419c-1.057-.9-.715-2.663.238-3.981a6.214,6.214,0,0,0-1.595-.783c-1.518-.51-2.6-.41-3.238.311a4.186,4.186,0,0,0-.639,2.841.348.348,0,0,1-.527.343,1.57,1.57,0,0,0-.83-.233c-1.211,0-2.63,1.3-3.163,2.9a3.349,3.349,0,0,0,1.152,3.9,5.711,5.711,0,0,0,2.318,1.092,4.814,4.814,0,0,1,.8-3.344A1.342,1.342,0,0,1,435,314.3a1.28,1.28,0,0,1,1.009.578,2.491,2.491,0,0,1,.42,2.676A2.74,2.74,0,0,1,434.05,318.975Zm8.783-2.951c-.065,0-.219.1-.36.381a2.909,2.909,0,0,0,.181,2.628,2.562,2.562,0,0,0,.493-2.5C443.035,316.162,442.894,316.024,442.833,316.024ZM435,315a.7.7,0,0,0-.483.317,4.236,4.236,0,0,0-.635,2.97,2.1,2.1,0,0,0,1.922-1.035,1.822,1.822,0,0,0-.344-1.942A.683.683,0,0,0,435,315Zm12.411-3.231a3.253,3.253,0,0,0-2.46,2.2c0,.066.007.158.284.158a1.341,1.341,0,0,0,.176-.012A2.517,2.517,0,0,0,447.411,311.767Zm-7.182-3.48c-.823,1.147-.98,2.448-.324,3.008a.68.68,0,0,0,1.192-.334A2.634,2.634,0,0,0,440.229,308.286Z" transform="translate(-305.541 -205.609)" fill="#241726"/>
    <path id="Path_26180" data-name="Path 26180" d="M51.14,422.385s-.687-5.216,4.333-3.528,3.385,6.463,1.471,4.829,1.677-7.177,5.519-4.709,2.983,7.257.258,7.611,1.65-5.576,5.083-1.914-4.062,10.338-7.128,7.884-.667-6.417.069-4-1.248,4.783-6.684,4.689S51.1,424.785,53,427.22s-1.255,5.183-5.09,2.314S48.449,420.737,51.14,422.385Z" transform="translate(-33.064 -285.756)" fill="#fff"/>
    <path id="Path_26181" data-name="Path 26181" d="M53.495,181.085l-.315,0a3.4,3.4,0,0,1-3.478-2.517,6.2,6.2,0,0,1-2.876-1.261,3.972,3.972,0,0,1-1.4-4.68c.63-1.9,2.31-3.381,3.823-3.381a2.3,2.3,0,0,1,.632.087,4.3,4.3,0,0,1,.842-2.8c.822-.937,2.176-1.119,3.983-.512a6.851,6.851,0,0,1,1.819.906,4.287,4.287,0,0,1,3.067-1.427,4,4,0,0,1,2.181.679,5.685,5.685,0,0,1,2.751,4.444,3.742,3.742,0,0,1,2.656,1.308,3.783,3.783,0,0,1,.554,4.313c-1.081,2.5-4.034,4.686-6.319,4.686a2.854,2.854,0,0,1-1.835-.606,4.935,4.935,0,0,1-.647-.62A9.087,9.087,0,0,1,53.495,181.085Zm-3.055-2.493a2.668,2.668,0,0,0,2.752,1.794l.3,0c2.734,0,4.227-.641,5.028-1.25a3.6,3.6,0,0,1-.281-3.43,1.185,1.185,0,0,1,.981-.763c.252,0,.716.13.981,1a3.271,3.271,0,0,1-.748,3.291,4.29,4.29,0,0,0,.564.541,2.176,2.176,0,0,0,1.4.453c2.005,0,4.713-2.033,5.68-4.266a3.129,3.129,0,0,0-.424-3.56,3.074,3.074,0,0,0-2.164-1.087,3.232,3.232,0,0,1-2.62,3.109,2.085,2.085,0,0,1-.266.018.863.863,0,0,1-.98-.825c-.039-.982,1.376-2.634,3.188-2.947A4.99,4.99,0,0,0,61.4,166.76a3.308,3.308,0,0,0-4.333.607,3.342,3.342,0,0,1,1.076,3.445,1.423,1.423,0,0,1-1.291,1.048h0a1.574,1.574,0,0,1-1.009-.419c-1.056-.9-.715-2.663.239-3.981a6.2,6.2,0,0,0-1.595-.783c-1.517-.51-2.6-.411-3.238.312a4.184,4.184,0,0,0-.639,2.841.348.348,0,0,1-.527.343,1.57,1.57,0,0,0-.83-.233c-1.211,0-2.63,1.3-3.163,2.9a3.349,3.349,0,0,0,1.153,3.9,5.713,5.713,0,0,0,2.318,1.093,4.813,4.813,0,0,1,.8-3.344,1.342,1.342,0,0,1,1.026-.576,1.28,1.28,0,0,1,1.009.578,2.49,2.49,0,0,1,.42,2.676,2.741,2.741,0,0,1-2.379,1.419Zm8.783-2.951c-.064,0-.218.1-.36.381a2.91,2.91,0,0,0,.182,2.628,2.562,2.562,0,0,0,.492-2.5c-.112-.368-.252-.5-.314-.5Zm-7.832-1.027a.7.7,0,0,0-.483.317,4.238,4.238,0,0,0-.635,2.97,2.1,2.1,0,0,0,1.922-1.035,1.822,1.822,0,0,0-.344-1.942.683.683,0,0,0-.459-.31ZM63.8,171.383a3.252,3.252,0,0,0-2.46,2.2c0,.066.006.157.284.157a1.359,1.359,0,0,0,.176-.012A2.518,2.518,0,0,0,63.8,171.383ZM56.62,167.9c-.823,1.147-.981,2.448-.325,3.008a.679.679,0,0,0,1.191-.334A2.633,2.633,0,0,0,56.62,167.9Zm111.6-99.5a.348.348,0,0,1-.268-.571c.173-.232,1.2-2.034,1.666-2.971-.751.3-2.122.931-3.361,1.535a.348.348,0,0,1-.3-.626c4.235-2.065,4.338-1.9,4.522-1.607.314.508-1.961,4.082-1.986,4.113a.346.346,0,0,1-.268.126Z" transform="translate(-32.191 -33.246)" fill="#241726"/>
    <path id="Path_26182" data-name="Path 26182" d="M438.571,71.156s-1.047-5.286,1.937-5.026c4.134.36,8.433,9.618,1.838,13.518s-10.713-1.293-10.713-1.293l3.61-1.839s-3.4-1.777-3.673-3.863,2.345-.844,2.345-.844-3.739-4.03-1.689-4.69S438.571,71.156,438.571,71.156Z" transform="translate(-307.512 -34.764)" fill="#e8b882"/>
    <path id="Path_26183" data-name="Path 26183" d="M180.67,72.574a3.321,3.321,0,0,1-1.8-1.011.348.348,0,1,1,.484-.5,3.287,3.287,0,0,0,1.253.813,5.644,5.644,0,0,0-.858-1.453A.349.349,0,0,1,180.3,70c.442.575,1.159,1.621.986,2.176a.539.539,0,0,1-.359.361A.831.831,0,0,1,180.67,72.574ZM175.593,79a.345.345,0,0,1-.149-.034c-.25-.118-2.441-1.192-2.638-2.473a.71.71,0,0,1,.258-.73,1.958,1.958,0,0,1,1.622.073c-.561-1.219-.627-1.971-.2-2.239.182-.114.736-.461,3.863,2.429a.348.348,0,0,1-.473.511,15.442,15.442,0,0,0-2.983-2.3,7.135,7.135,0,0,0,.838,2.124.348.348,0,0,1-.461.479,3.807,3.807,0,0,0-1.787-.524c0,.007,0,.03.008.068.107.694,1.436,1.564,2.248,1.95a.348.348,0,0,1-.148.663Zm2.279,2.875h-.052a.348.348,0,0,1-.341-.355.369.369,0,0,1,.356-.341,6.653,6.653,0,0,0,4.5-1.774,5.584,5.584,0,0,0,1.194-4.54.348.348,0,0,1,.31-.382.354.354,0,0,1,.382.311,6.238,6.238,0,0,1-1.378,5.087A7.183,7.183,0,0,1,177.872,81.879ZM67.915,136.146a.34.34,0,0,1-.269-.132c-.024-.032-2.178-3.681-1.846-4.177.2-.29.3-.45,4.466,1.758a.348.348,0,0,1-.326.615c-1.218-.646-2.566-1.323-3.307-1.648.429.952,1.4,2.789,1.568,3.031a.35.35,0,0,1-.285.554Z" transform="translate(-46.863 -37.438)" fill="#241726"/>
    <path id="Path_26184" data-name="Path 26184" d="M72.334,292.709s1.226-5.247-1.765-5.089c-4.144.22-8.754,9.327-2.295,13.448s10.751-.93,10.751-.93l-3.546-1.96s3.459-1.661,3.8-3.737-2.315-.923-2.315-.923,3.873-3.9,1.847-4.631S72.334,292.709,72.334,292.709Z" transform="translate(-46.363 -192.597)" fill="#e8b882"/>
    <path id="Path_26185" data-name="Path 26185" d="M51.2,107.442a.838.838,0,0,1-.288-.048.537.537,0,0,1-.347-.373c-.154-.561.6-1.582,1.059-2.141a.348.348,0,1,1,.537.444,5.548,5.548,0,0,0-.907,1.423,3.283,3.283,0,0,0,1.28-.771.348.348,0,1,1,.466.517,3.4,3.4,0,0,1-1.8.95Zm4.834,6.6a.348.348,0,0,1-.139-.667c.825-.359,2.184-1.184,2.313-1.873a.216.216,0,0,0,0-.085,4,4,0,0,0-1.8.481.348.348,0,0,1-.445-.494,7.13,7.13,0,0,0,.909-2.094,15.424,15.424,0,0,0-3.059,2.194.348.348,0,0,1-.456-.527c3.218-2.779,3.763-2.417,3.943-2.3.422.283.33,1.032-.272,2.232a1.965,1.965,0,0,1,1.623-.018.709.709,0,0,1,.234.739c-.239,1.274-2.467,2.273-2.72,2.383a.36.36,0,0,1-.139.028Zm-2.329,2.8h0a7.227,7.227,0,0,1-4.956-2.163,6.238,6.238,0,0,1-1.2-5.131.348.348,0,1,1,.69.1,5.582,5.582,0,0,0,1.039,4.578,6.631,6.631,0,0,0,4.441,1.925.348.348,0,0,1,0,.7Zm-12.146-24.2h-.01a2.41,2.41,0,1,1,.01,0Zm.007-4.119a1.711,1.711,0,0,0-.015,3.423l.007.348v-.348a1.716,1.716,0,0,0,1.712-1.7,1.712,1.712,0,0,0-1.7-1.719ZM84.915,34.327H84.9a2.414,2.414,0,1,1,.01,0Zm.007-4.119a1.711,1.711,0,0,0-.015,3.423l.007.348v-.348a1.716,1.716,0,0,0,1.712-1.7,1.712,1.712,0,0,0-1.7-1.719Zm86.342,42.419h-.01a2.413,2.413,0,1,1,.01,0Zm.007-4.119a1.711,1.711,0,0,0-.015,3.423l.007.348v-.348a1.716,1.716,0,0,0,1.712-1.7,1.712,1.712,0,0,0-1.7-1.719ZM70.291,158.281h-.01a2.413,2.413,0,1,1,.01,0Zm.007-4.119a1.711,1.711,0,0,0-.015,3.423l.007.348v-.348A1.716,1.716,0,0,0,72,155.88a1.712,1.712,0,0,0-1.7-1.719ZM86.97,129.044h0a.348.348,0,0,1-.346-.35l.035-5.86a.349.349,0,0,1,.348-.346h0a.348.348,0,0,1,.346.35l-.035,5.86A.348.348,0,0,1,86.97,129.044Z" transform="translate(-27.896 -8.678)" fill="#241726"/>
    <path id="Path_26186" data-name="Path 26186" d="M196.448,361.271a.348.348,0,0,1-.2-.634l4.839-3.374a.348.348,0,0,1,.4.571l-4.839,3.374A.347.347,0,0,1,196.448,361.271Z" transform="translate(-139.737 -242.184)" fill="#241726"/>
    <path id="Path_26187" data-name="Path 26187" d="M202.16,360.9a.348.348,0,0,1-.253-.109l-3.659-3.866a.348.348,0,1,1,.506-.479l3.659,3.866a.349.349,0,0,1-.253.588Z" transform="translate(-141.199 -241.563)" fill="#241726"/>
    <path id="Path_26188" data-name="Path 26188" d="M194.141,188.591a.348.348,0,0,1,0-.7l5.636-.054h0a.348.348,0,0,1,0,.7l-5.636.054Zm54.725-64.758h0a.348.348,0,0,1-.346-.35l.035-5.86a.349.349,0,0,1,.348-.346h0a.348.348,0,0,1,.346.35l-.035,5.86A.348.348,0,0,1,248.866,123.833Z" transform="translate(-138.091 -71.217)" fill="#241726"/>
    <path id="Path_26189" data-name="Path 26189" d="M376.325,125.557a.348.348,0,0,1-.2-.634l4.839-3.374a.348.348,0,0,1,.4.571l-4.839,3.374A.347.347,0,0,1,376.325,125.557Z" transform="translate(-267.912 -74.221)" fill="#241726"/>
    <path id="Path_26190" data-name="Path 26190" d="M382.037,125.182a.348.348,0,0,1-.253-.109l-3.659-3.866a.348.348,0,1,1,.506-.479l3.659,3.866a.349.349,0,0,1-.253.588Z" transform="translate(-269.375 -73.599)" fill="#241726"/>
    <path id="Path_26191" data-name="Path 26191" d="M374.018,127.816a.348.348,0,1,1,0-.7l5.636-.054h0a.348.348,0,0,1,0,.7l-5.636.054Zm36.45,85.164h0a.348.348,0,0,1-.346-.35l.035-5.86a.349.349,0,0,1,.348-.346h0a.348.348,0,0,1,.346.35l-.035,5.86A.348.348,0,0,1,410.468,212.98Z" transform="translate(-266.267 -78.192)" fill="#241726"/>
    <path id="Path_26192" data-name="Path 26192" d="M492.618,411.446a.348.348,0,0,1-.2-.634l4.839-3.374a.348.348,0,0,1,.4.571l-4.839,3.374A.346.346,0,0,1,492.618,411.446Z" transform="translate(-350.78 -277.938)" fill="#241726"/>
    <path id="Path_26193" data-name="Path 26193" d="M498.331,411.071a.348.348,0,0,1-.253-.109l-3.659-3.866a.348.348,0,1,1,.506-.479l3.659,3.866a.349.349,0,0,1-.253.588Z" transform="translate(-352.244 -277.316)" fill="#241726"/>
    <path id="Path_26194" data-name="Path 26194" d="M147.67,131.8a.348.348,0,1,1,0-.7l5.636-.054h0a.348.348,0,0,1,0,.7l-5.636.054Zm-110.3-96.53a.447.447,0,0,1-.426-.316c-.015-.055-.3-1.41-.6-3.084-2.3-.086-2.757-.4-2.906-.729a.567.567,0,0,1,.11-.616,14.669,14.669,0,0,1,2.293-1.838c-.366-2.794-.183-3.445.048-3.709a.523.523,0,0,1,.624-.132,25.959,25.959,0,0,1,2.745,1.7A8.311,8.311,0,0,1,42.216,25.3a.529.529,0,0,1,.583.471c.012.134.05.533-.953,2.62,2.549,1.928,2.547,2.321,2.545,2.535a.443.443,0,0,1-.182.36c-.448.328-3.247.494-4.181.541C38.053,35.266,37.594,35.266,37.371,35.266Zm-.312-3.381q.224,1.243.474,2.482A17.826,17.826,0,0,0,39.2,31.86C38.451,31.885,37.732,31.893,37.059,31.885Zm-.123-.7c.819.016,1.734,0,2.676-.039q.71-1.255,1.354-2.546-.858-.633-1.736-1.238-1.346.781-2.636,1.652C36.685,29.668,36.8,30.4,36.936,31.186Zm-2.77-.306a6.78,6.78,0,0,0,2.061.284q-.146-.852-.273-1.706A13.8,13.8,0,0,0,34.166,30.881Zm7.366-1.854q-.527,1.052-1.1,2.081a24.741,24.741,0,0,0,3.14-.325,13.962,13.962,0,0,0-2.041-1.756ZM36.38,25.549a9.465,9.465,0,0,0,.113,2.7q1.032-.686,2.1-1.317C37.631,26.284,36.8,25.766,36.38,25.549ZM39.9,26.984c.472.329.936.661,1.372.981a12.778,12.778,0,0,0,.8-1.949A9.555,9.555,0,0,0,39.9,26.984ZM150,90.476h-.028c-.554-.034-2.811-1.7-3.559-2.26a16.871,16.871,0,0,1-3.793,1.074.626.626,0,0,1-.53-.219.46.46,0,0,1-.044-.427c.024-.052.673-1.275,1.515-2.752-1.708-1.535-1.863-2.072-1.766-2.42a.567.567,0,0,1,.479-.4,13.624,13.624,0,0,1,2.938.055c1.647-2.6,2.155-2.827,2.5-2.827a.518.518,0,0,1,.473.305,25.956,25.956,0,0,1,1.022,3.063c3,.551,3.175.98,3.263,1.189a.5.5,0,0,1-.052.479c-.076.111-.3.441-2.41,1.4.719,3.089.476,3.4.343,3.565a.446.446,0,0,1-.352.173Zm-2.815-2.554a24.743,24.743,0,0,0,2.62,1.76,13.962,13.962,0,0,0-.444-2.655q-1.078.471-2.176.9Zm-3.09-1.561c-.535.94-.982,1.762-1.223,2.209a18.65,18.65,0,0,0,2.885-.857q-.847-.656-1.662-1.352Zm.352-.615q1.015.872,2.081,1.683,1.349-.51,2.669-1.09c-.16-.656-.345-1.36-.541-2.062q-1.534-.261-3.083-.417-.578.934-1.126,1.886Zm4.97-1.33q.223.813.426,1.632a12.637,12.637,0,0,0,1.864-.989A9.053,9.053,0,0,0,149.415,84.415Zm-6.9-.678a6.816,6.816,0,0,0,1.4,1.537q.433-.748.883-1.486a15.081,15.081,0,0,0-2.284-.051Zm3.474-.535c.823.089,1.667.2,2.456.332-.327-1.117-.634-2.048-.819-2.484A9.8,9.8,0,0,0,145.986,83.2Zm-133.06-9.6c-.257,0-.5,0-1.179-2.7-2.29-.441-2.49-.71-2.558-.8a.454.454,0,0,1-.063-.35c.041-.147.137-.487,2.754-1.541.94-2.449,1.258-2.449,1.47-2.449a.475.475,0,0,1,.327.167,6.733,6.733,0,0,1,.551,1.751c.073.294.16.648.21.8.137.061.441.17.692.26,1.345.482,1.692.646,1.755.967a.463.463,0,0,1-.129.378,12.155,12.155,0,0,1-2.256.97c-1.108,2.521-1.345,2.533-1.554,2.544Zm-2.851-3.8c.458.132,1.292.321,2.02.457a.349.349,0,0,1,.274.259c.186.754.429,1.613.6,2.1.254-.457.638-1.265.949-1.979a.347.347,0,0,1,.2-.189c.622-.219,1.325-.487,1.762-.679-.306-.129-.723-.279-.993-.375-.769-.276-.914-.335-1.013-.468a3.789,3.789,0,0,1-.331-1.086c-.072-.292-.182-.74-.28-1.076a19.174,19.174,0,0,0-.8,1.831.35.35,0,0,1-.2.2,22.446,22.446,0,0,0-2.2,1ZM118.506,25.177c-.258,0-.5,0-1.18-2.7-2.289-.441-2.49-.71-2.557-.8a.456.456,0,0,1-.063-.351c.041-.147.137-.487,2.754-1.541.94-2.449,1.258-2.449,1.47-2.449a.473.473,0,0,1,.327.167,6.724,6.724,0,0,1,.551,1.751c.073.294.16.648.21.8.137.061.44.17.691.26,1.346.483,1.693.647,1.756.968a.464.464,0,0,1-.129.378,12.149,12.149,0,0,1-2.255.97c-1.108,2.521-1.345,2.533-1.554,2.544h-.02Zm-2.852-3.8c.458.132,1.292.321,2.02.457a.349.349,0,0,1,.274.259c.186.754.43,1.614.6,2.1.254-.456.638-1.265.95-1.979a.347.347,0,0,1,.2-.189c.622-.219,1.324-.487,1.761-.679-.306-.129-.723-.279-.994-.376-.767-.275-.912-.335-1.011-.467a3.79,3.79,0,0,1-.331-1.086c-.072-.292-.182-.74-.28-1.076a19.174,19.174,0,0,0-.8,1.831.35.35,0,0,1-.2.2A22.426,22.426,0,0,0,115.654,21.375Zm25.9,131.388c-.258,0-.5,0-1.18-2.7-2.289-.441-2.49-.71-2.557-.8a.456.456,0,0,1-.063-.351c.041-.147.137-.487,2.754-1.541.94-2.449,1.258-2.449,1.47-2.449a.473.473,0,0,1,.327.167,6.725,6.725,0,0,1,.551,1.751c.073.294.16.648.21.8.137.061.44.17.691.26,1.346.483,1.693.647,1.756.968a.464.464,0,0,1-.129.378,12.147,12.147,0,0,1-2.255.97c-1.108,2.521-1.345,2.533-1.554,2.544h-.02Zm-2.852-3.8c.458.132,1.292.321,2.02.457a.349.349,0,0,1,.274.259c.186.754.43,1.614.6,2.1.254-.456.638-1.265.95-1.979a.347.347,0,0,1,.2-.189c.622-.219,1.324-.487,1.761-.679-.306-.129-.723-.279-.994-.376-.767-.275-.912-.335-1.011-.467a3.8,3.8,0,0,1-.331-1.086c-.072-.292-.182-.74-.28-1.076a19.17,19.17,0,0,0-.8,1.831.35.35,0,0,1-.2.2A22.567,22.567,0,0,0,138.7,148.96ZM105.772,35.542a.349.349,0,0,1-.334-.249c-.158-.535-4.029-13.068-17.524-11.121a.348.348,0,1,1-.1-.689c14.092-2.039,18.251,11.477,18.291,11.613a.348.348,0,0,1-.334.446Z" transform="translate(-6.494)" fill="#241726"/>
    <path id="Path_26195" data-name="Path 26195" d="M90.213,35.788a.777.777,0,0,1-.128-.011c-.948-.158-7.183-3.545-7.027-4.632.144-1,7.066-3.2,8.328-3.2.133,0,.539,0,.695.312a.588.588,0,0,1-.119.645,11.5,11.5,0,0,1-3.055,2.6c1.04,1.557,2.106,3.4,1.786,4.01a.523.523,0,0,1-.479.276ZM83.8,31.258a25.244,25.244,0,0,0,6.249,3.8,16.482,16.482,0,0,0-1.929-3.471.348.348,0,0,1,.121-.5,11.933,11.933,0,0,0,3.037-2.438A27.225,27.225,0,0,0,83.8,31.258ZM105.7,46.8a.707.707,0,0,1-.293-.067c-1.153-.525-5.387-7.294-5.591-8.942a18.622,18.622,0,0,1,0-3.544.347.347,0,0,1,.278-.307,15,15,0,0,1,2.618-.256,4.862,4.862,0,0,1,2.445.493c1.291.775,5.423,8.031,5.045,9.4a.516.516,0,0,1-.508.4,9.638,9.638,0,0,1-3.159-1.015c.088,1.133.15,3.054-.361,3.623A.623.623,0,0,1,105.7,46.8Zm-5.214-12.222a17.418,17.418,0,0,0,.02,3.127c.189,1.52,4.3,7.923,5.17,8.385a9.285,9.285,0,0,0,.107-3.681.348.348,0,0,1,.507-.345,12.3,12.3,0,0,0,3.25,1.205c-.042-1.224-3.433-7.708-4.743-8.495a4.285,4.285,0,0,0-2.086-.393,14.391,14.391,0,0,0-2.225.2ZM15.912,127.438a.346.346,0,0,1-.228-.085c-10.769-9.323-3.272-21.31-3.195-21.43a.348.348,0,1,1,.586.376c-.3.47-7.244,11.6,3.064,20.527a.348.348,0,0,1-.228.611Z" transform="translate(-7.04 -7.562)" fill="#241726"/>
    <path id="Path_26196" data-name="Path 26196" d="M11.911,316.418c-.773,0-7.8-3.567-7.844-4.8,0-.082.013-.495.6-.536a11.513,11.513,0,0,1,3.966.608c1.094-3.989,1.757-3.989,1.979-3.989a.557.557,0,0,1,.481.3c.5.821,2.022,7.75,1.1,8.344A.513.513,0,0,1,11.911,316.418Zm0-.7v0Zm-7-3.958a28.036,28.036,0,0,0,6.878,3.945A25.225,25.225,0,0,0,10.57,308.5a16.47,16.47,0,0,0-1.361,3.73.348.348,0,0,1-.458.237,11.975,11.975,0,0,0-3.84-.7ZM3.369,301.712a.348.348,0,0,1-.214-.073c-.115-.089-2.826-2.21-3.134-3.982-.277-1.589,2.179-8.172,3.4-9.627a.922.922,0,0,1,.646-.4.507.507,0,0,1,.387.182,9.629,9.629,0,0,1,1.3,3.052c.8-.8,2.2-2.1,2.96-2.1a.632.632,0,0,1,.63.478c.358,1.215-1.987,8.846-3.1,10.08a18.654,18.654,0,0,1-2.68,2.32A.348.348,0,0,1,3.369,301.712Zm.64-13.341c-.817.685-3.568,7.642-3.3,9.167.2,1.147,1.842,2.7,2.672,3.388a17.44,17.44,0,0,0,2.353-2.064c1.032-1.147,3.206-8.543,2.948-9.417a9.857,9.857,0,0,0-2.847,2.349.348.348,0,0,1-.593-.157,12.109,12.109,0,0,0-1.231-3.266Z" transform="translate(0 -192.609)" fill="#241726"/>
    <path id="Path_26198" data-name="Path 26198" d="M257.4,290.79s28.777,43.666,29.7,43.378l6-4.842,5.329-4.063c.918,0-29.7-40.506-30.613-41.367S256.487,289.066,257.4,290.79Z" transform="translate(-183.38 -189.885)" fill="#0098d4"/>
    <path id="Path_26199" data-name="Path 26199" d="M129.987,63.163a38.649,38.649,0,1,0,38.648,38.649A38.648,38.648,0,0,0,129.987,63.163Zm0,64.905a26.257,26.257,0,1,1,26.256-26.257A26.256,26.256,0,0,1,129.987,128.068Z" transform="translate(-65.086 -32.657)" fill="#15ac8b"/>
    <ellipse id="Ellipse_47" data-name="Ellipse 47" cx="4.2" cy="4.2" rx="4.2" ry="4.2" transform="translate(61.02 83.523)" fill="#0098d4"/>
    <path id="Path_26208" data-name="Path 26208" d="M178.04,135.775s5.918,1.145,6.491.764.382-8.4,6.681-8.972,9.736,5.154,4.582,9.545-7.636,4.2-8.591,9.354c-.852,4.6.382,7.636.955,8.018s6.109.382,6.3-.382-1.336-6.872.955-8.4,9.532-4.986,10.118-12.6c.764-9.927-10.118-15.272-17.563-12.981S177.086,134.057,178.04,135.775Z" transform="translate(-126.756 -72.869)" fill="#0098d4"/>
    <path id="Path_26209" data-name="Path 26209" d="M143.854,130.327a.347.347,0,0,1-.218-.076c-5.806-4.645-10.654-.741-10.7-.7a.348.348,0,1,1-.443-.537c.052-.043,5.34-4.3,11.581.693a.349.349,0,0,1-.218.62Zm4,6.093a.348.348,0,0,1-.348-.348c0-1.93-2.148-4.266-2.17-4.29a.348.348,0,0,1,.51-.474c.1.1,2.356,2.563,2.356,4.764A.348.348,0,0,1,147.858,136.42Zm-39.65,32.795a.349.349,0,0,1-.127-.024,3.893,3.893,0,0,1-2.22-3.024.348.348,0,0,1,.691-.085,3.25,3.25,0,0,0,1.784,2.46.348.348,0,0,1-.127.673Zm.522-4.7a.349.349,0,0,1-.127-.024,3.893,3.893,0,0,1-2.22-3.024.348.348,0,0,1,.691-.085,3.25,3.25,0,0,0,1.784,2.46.348.348,0,0,1-.127.673Zm3.656,5.571a.349.349,0,0,1-.127-.024,3.893,3.893,0,0,1-2.22-3.024.348.348,0,0,1,.3-.387.354.354,0,0,1,.388.3,3.25,3.25,0,0,0,1.784,2.46.348.348,0,0,1-.127.673Zm.428,4.116a.353.353,0,0,1-.107-.017,3.894,3.894,0,0,1-2.4-2.887.348.348,0,0,1,.685-.126,3.251,3.251,0,0,0,1.927,2.35.348.348,0,0,1-.107.679Zm-8.305-14.8a.346.346,0,0,1-.229-.086,3.892,3.892,0,0,1-1.067-3.6.348.348,0,0,1,.679.154,3.252,3.252,0,0,0,.847,2.919.348.348,0,0,1-.23.61Zm-3.311-2.239a.347.347,0,0,1-.262-.119,3.893,3.893,0,0,1-.58-3.707.348.348,0,0,1,.653.243,3.253,3.253,0,0,0,.451,3.006.348.348,0,0,1-.262.577Zm3.311,7.14a.349.349,0,0,1-.174-.047,3.894,3.894,0,0,1-1.741-3.324.348.348,0,0,1,.7.02,3.25,3.25,0,0,0,1.393,2.7.348.348,0,0,1-.174.65ZM135.1,224.729a.348.348,0,0,1-.012-.7,10.862,10.862,0,0,0,1.341-.128.348.348,0,1,1,.11.688,11.48,11.48,0,0,1-1.427.137Zm-1.391-.026h-.024q-.71-.051-1.413-.162a.348.348,0,1,1,.107-.688q.673.106,1.353.155a.348.348,0,0,1-.023.7Zm4.129-.424a.348.348,0,0,1-.1-.68,8.163,8.163,0,0,0,1.236-.5.348.348,0,1,1,.314.622,8.841,8.841,0,0,1-1.342.543.344.344,0,0,1-.1.016Zm-6.879,0a.352.352,0,0,1-.084-.01,9.256,9.256,0,0,1-1.372-.451.348.348,0,1,1,.269-.642,8.681,8.681,0,0,0,1.27.417.348.348,0,0,1-.084.686Zm-2.55-1.083a.345.345,0,0,1-.19-.056,7.726,7.726,0,0,1-1.14-.9.348.348,0,0,1,.483-.5,7,7,0,0,0,1.036.823.348.348,0,0,1-.19.64Zm11.9-.167a.348.348,0,0,1-.208-.627,7.425,7.425,0,0,0,.989-.887.349.349,0,0,1,.51.475,8.1,8.1,0,0,1-1.083.971A.348.348,0,0,1,140.311,223.027Zm-13.893-1.752a.348.348,0,0,1-.284-.147,8.461,8.461,0,0,1-.732-1.253.349.349,0,0,1,.63-.3,7.59,7.59,0,0,0,.671,1.149.348.348,0,0,1-.083.485A.342.342,0,0,1,126.419,221.275ZM142.2,221a.348.348,0,0,1-.293-.537,5.723,5.723,0,0,0,.593-1.163.348.348,0,1,1,.662.216,6.311,6.311,0,0,1-.669,1.324A.348.348,0,0,1,142.2,221Zm-16.977-2.226a.349.349,0,0,1-.334-.249,10.335,10.335,0,0,1-.31-1.407.348.348,0,0,1,.293-.4.353.353,0,0,1,.4.293,9.682,9.682,0,0,0,.29,1.312.348.348,0,0,1-.334.447Zm-.419-2.747a.348.348,0,0,1-.348-.34l0-.258a11.505,11.505,0,0,1,.06-1.178.352.352,0,0,1,.381-.311.347.347,0,0,1,.309.295q.423-.211.826-.461a.348.348,0,1,1,.367.592,10.859,10.859,0,0,1-1.239.663c0,.133-.007.267-.007.4l0,.241a.348.348,0,0,1-.339.357H124.8Zm-3.871-.082h-.007a8.1,8.1,0,0,1-1.444-.161.348.348,0,1,1,.14-.682,7.406,7.406,0,0,0,1.319.147.348.348,0,0,1-.007.7Zm1.387-.085a.348.348,0,0,1-.048-.693,9.1,9.1,0,0,0,1.308-.288.348.348,0,1,1,.2.667,9.846,9.846,0,0,1-1.409.31.363.363,0,0,1-.05,0Zm-4.1-.474a.337.337,0,0,1-.132-.026,7.99,7.99,0,0,1-1.289-.673.348.348,0,0,1,.377-.585,7.341,7.341,0,0,0,1.176.615.348.348,0,0,1-.132.67Zm-2.334-1.491a.348.348,0,0,1-.234-.09,10.32,10.32,0,0,1-.995-1.042.349.349,0,1,1,.536-.446,9.474,9.474,0,0,0,.927.971.349.349,0,0,1-.234.607Zm11.455-.293a.348.348,0,0,1-.224-.615,6.817,6.817,0,0,0,.931-.941.349.349,0,0,1,.544.435,7.573,7.573,0,0,1-1.026,1.038A.345.345,0,0,1,127.34,213.6Zm-2.247-.339a.348.348,0,0,1-.339-.43,8.733,8.733,0,0,1,.45-1.378.348.348,0,0,1,.641.273,8.038,8.038,0,0,0-.414,1.268A.349.349,0,0,1,125.094,213.263Zm-10.992-1.5a.348.348,0,0,1-.292-.158q-.389-.6-.725-1.224a.348.348,0,1,1,.615-.328q.321.6.694,1.172a.349.349,0,0,1-.292.538Zm14.89-.365a.348.348,0,0,1-.335-.442,1.24,1.24,0,0,0,.05-.331.629.629,0,0,0-.271-.546.348.348,0,1,1,.415-.56,1.328,1.328,0,0,1,.552,1.106,1.922,1.922,0,0,1-.076.519A.347.347,0,0,1,128.992,211.4Zm-2.771-.665a.348.348,0,0,1-.272-.565,2.635,2.635,0,0,1,1.269-.936.348.348,0,0,1,.2.667,2,2,0,0,0-.926.7A.347.347,0,0,1,126.221,210.738Zm-13.418-1.43a.349.349,0,0,1-.323-.218,11.836,11.836,0,0,1-.457-1.359.348.348,0,1,1,.672-.181,11.076,11.076,0,0,0,.431,1.279.348.348,0,0,1-.323.479Zm-.715-2.684a.348.348,0,0,1-.345-.3,9.519,9.519,0,0,1-.076-1.2l0-.243a.357.357,0,0,1,.357-.339.349.349,0,0,1,.339.357l0,.225a8.833,8.833,0,0,0,.07,1.111.349.349,0,0,1-.346.392Zm.078-2.772a.347.347,0,0,1-.343-.413,8.965,8.965,0,0,1,.383-1.4.348.348,0,1,1,.654.238q-.109.3-.195.608a6.805,6.805,0,0,0,.985.109.349.349,0,0,1,.336.36.331.331,0,0,1-.36.336,7.444,7.444,0,0,1-1.119-.126A.348.348,0,0,1,112.166,203.852Zm2.857-.265a.348.348,0,0,1-.067-.69,5.073,5.073,0,0,0,1.232-.414.348.348,0,0,1,.3.626,5.8,5.8,0,0,1-1.4.47A.306.306,0,0,1,115.023,203.587Zm-4.091-.491a.345.345,0,0,1-.127-.024,12.276,12.276,0,0,1-1.3-.6.348.348,0,1,1,.328-.614,11.843,11.843,0,0,0,1.226.569.348.348,0,0,1-.128.672Zm6.564-.717a.348.348,0,0,1-.228-.611,5.091,5.091,0,0,0,.864-.97.349.349,0,0,1,.575.393,5.783,5.783,0,0,1-.984,1.1A.343.343,0,0,1,117.5,202.379Zm-9.022-.583a.346.346,0,0,1-.191-.057q-.6-.389-1.155-.829a.348.348,0,1,1,.431-.547q.536.42,1.106.794a.348.348,0,0,1-.191.639Zm4.637-.551a.348.348,0,0,1-.3-.518,9.247,9.247,0,0,1,.8-1.2.348.348,0,1,1,.548.429,8.636,8.636,0,0,0-.741,1.114A.347.347,0,0,1,113.112,201.246Zm5.933-1.145a.349.349,0,0,1-.331-.458,3.278,3.278,0,0,0,.181-1.018q0-.107-.01-.209a.348.348,0,0,1,.694-.066c.008.089.013.181.013.275a3.935,3.935,0,0,1-.216,1.238A.349.349,0,0,1,119.045,200.1Zm-12.749-.032a.349.349,0,0,1-.243-.1,11.168,11.168,0,0,1-.962-1.067.348.348,0,1,1,.547-.431,10.4,10.4,0,0,0,.9,1,.349.349,0,0,1-.243.6Zm8.53-1a.347.347,0,0,1-.236-.6,7.963,7.963,0,0,1,1.152-.889.348.348,0,0,1,.371.589,7.356,7.356,0,0,0-1.051.812A.344.344,0,0,1,114.826,199.064Zm-10.234-1.185a.348.348,0,0,1-.3-.179,7.994,7.994,0,0,1-.59-1.329.348.348,0,1,1,.66-.222,7.343,7.343,0,0,0,.539,1.213.348.348,0,0,1-.3.517Zm12.59-.261a.348.348,0,0,1-.1-.681,2.327,2.327,0,0,1,1.61-.01.348.348,0,1,1-.287.635,1.7,1.7,0,0,0-1.119.041A.343.343,0,0,1,117.183,197.618Zm-13.468-2.364a.349.349,0,0,1-.345-.3,7.53,7.53,0,0,1-.044-1.458.354.354,0,0,1,.371-.323.349.349,0,0,1,.324.372q-.015.229-.016.459a6.955,6.955,0,0,0,.056.862.348.348,0,0,1-.346.393Zm.179-2.763a.348.348,0,0,1-.337-.435,7.961,7.961,0,0,1,.488-1.372.348.348,0,1,1,.631.294,7.214,7.214,0,0,0-.445,1.251A.348.348,0,0,1,103.894,192.492Zm79.722-14.664a.348.348,0,0,1-.016-.7,8.466,8.466,0,0,0,1.325-.17.348.348,0,1,1,.143.682,9.131,9.131,0,0,1-1.435.185h-.016Zm-1.389-.049-.042,0a8.427,8.427,0,0,1-1.421-.3.348.348,0,1,1,.2-.666,7.732,7.732,0,0,0,1.3.272.348.348,0,0,1-.041.694Zm4.106-.512a.348.348,0,0,1-.119-.675c.223-.081.447-.172.673-.273q.285-.128.556-.271a.348.348,0,1,1,.325.615,10.635,10.635,0,0,1-1.316.583A.354.354,0,0,1,186.333,177.266Zm-6.759-.287a.345.345,0,0,1-.156-.037,8.548,8.548,0,0,1-1.235-.759.348.348,0,0,1,.413-.56,7.776,7.776,0,0,0,1.134.7.348.348,0,0,1-.156.66Zm9.212-1.012a.348.348,0,0,1-.2-.63,9.3,9.3,0,0,0,1.023-.866.348.348,0,0,1,.487.5,9.959,9.959,0,0,1-1.1.931A.344.344,0,0,1,188.786,175.967Zm-11.44-.636a.345.345,0,0,1-.251-.108,8.217,8.217,0,0,1-.907-1.134.348.348,0,1,1,.581-.385,7.514,7.514,0,0,0,.83,1.038.347.347,0,0,1-.252.589Zm13.424-1.3a.348.348,0,0,1-.276-.561,10.535,10.535,0,0,0,.752-1.117.348.348,0,0,1,.6.352,11.177,11.177,0,0,1-.8,1.191A.348.348,0,0,1,190.77,174.029Zm-14.951-1.01a.348.348,0,0,1-.321-.213,7.129,7.129,0,0,1-.428-1.4.348.348,0,0,1,.684-.133,6.393,6.393,0,0,0,.386,1.26.348.348,0,0,1-.321.483Zm16.36-1.385a.349.349,0,0,1-.319-.488,13.133,13.133,0,0,0,.478-1.27.349.349,0,0,1,.664.212,14.2,14.2,0,0,1-.5,1.337A.349.349,0,0,1,192.178,171.634Zm-16.88-1.329h-.012a.348.348,0,0,1-.337-.36,6.018,6.018,0,0,1,.229-1.457.348.348,0,0,1,.669.193,5.336,5.336,0,0,0-.2,1.288A.348.348,0,0,1,175.3,170.305Zm17.731-1.32a.348.348,0,0,1-.34-.423c.1-.437.175-.889.234-1.343a.348.348,0,1,1,.691.091q-.093.705-.245,1.4A.347.347,0,0,1,193.03,168.985Zm-16.972-1.331a.348.348,0,0,1-.3-.522,6.532,6.532,0,0,1,.555-.812.348.348,0,0,1,.544.435,5.823,5.823,0,0,0-.495.725.348.348,0,0,1-.3.174Zm17.337-1.428h-.017a.348.348,0,0,1-.331-.365q.023-.461.023-.922,0-.222-.006-.445a.349.349,0,0,1,.34-.356.364.364,0,0,1,.356.34q.018.709-.018,1.418A.348.348,0,0,1,193.4,166.226Zm-.068-2.782a.349.349,0,0,1-.346-.314q-.067-.68-.186-1.354a.348.348,0,0,1,.685-.121c.082.464.147.937.194,1.406a.349.349,0,0,1-.348.383Zm-.488-2.74a.348.348,0,0,1-.337-.259q-.173-.658-.407-1.3a.646.646,0,0,0,.2-.808.348.348,0,0,1,.269-.225,7.433,7.433,0,0,0,1.284-.34.348.348,0,0,1,.239.653,8.1,8.1,0,0,1-1.4.372.337.337,0,0,1,.063.106q.246.67.427,1.36a.348.348,0,0,1-.337.437Zm-1.775-1.767a10.562,10.562,0,0,1-1.259-.076.348.348,0,0,1-.3-.388.355.355,0,0,1,.388-.3,9.761,9.761,0,0,0,1.174.072h.167a.376.376,0,0,1,.354.342.348.348,0,0,1-.342.354Zm-2.585-.334a.351.351,0,0,1-.089-.012,9.128,9.128,0,0,1-1.368-.472.348.348,0,1,1,.28-.637,8.529,8.529,0,0,0,1.264.436.348.348,0,0,1-.088.685Zm3.391-.506a.348.348,0,0,1-.311-.191,8.565,8.565,0,0,0-.689-1.146.348.348,0,0,1,.566-.407,9.259,9.259,0,0,1,.745,1.239.348.348,0,0,1-.311.505Zm3.347-.254a.349.349,0,0,1-.184-.644c.167-.1.329-.216.487-.338q.3-.229.585-.469a.348.348,0,1,1,.446.535q-.3.25-.607.487a6.541,6.541,0,0,1-.545.377A.344.344,0,0,1,195.217,157.843Zm-9.252-.4a.346.346,0,0,1-.22-.078,1.783,1.783,0,0,1-.784-1.307,1.066,1.066,0,0,1,.016-.186.348.348,0,0,1,.686.124,1.139,1.139,0,0,0,.522.829.348.348,0,0,1-.22.618Zm11.4-1.371a.348.348,0,0,1-.245-.6q.485-.477.923-1a.348.348,0,1,1,.533.448q-.459.545-.967,1.045A.348.348,0,0,1,197.362,156.073Zm-7.138-.2a.346.346,0,0,1-.227-.084,3.3,3.3,0,0,0-1.075-.638.348.348,0,1,1,.224-.659,3.984,3.984,0,0,1,1.3.769.348.348,0,0,1-.227.612Zm-3.91-.478a.348.348,0,0,1-.126-.672,6.933,6.933,0,0,1,1.421-.356.348.348,0,1,1,.107.688,6.262,6.262,0,0,0-1.276.317.344.344,0,0,1-.126.024Zm12.829-1.455a.348.348,0,0,1-.29-.542,11.022,11.022,0,0,0,.681-1.164.348.348,0,1,1,.621.313,11.674,11.674,0,0,1-.723,1.238.347.347,0,0,1-.289.155Zm1.243-2.483a.349.349,0,0,1-.33-.461,9.415,9.415,0,0,0,.343-1.3.348.348,0,1,1,.684.128,10.179,10.179,0,0,1-.368,1.393A.348.348,0,0,1,200.385,151.456Zm.512-2.727h-.014a.349.349,0,0,1-.335-.361,9.265,9.265,0,0,0-.044-1.341.348.348,0,0,1,.692-.073,9.984,9.984,0,0,1,.048,1.441A.349.349,0,0,1,200.9,148.729Zm-.29-2.761a.349.349,0,0,1-.338-.264,9.96,9.96,0,0,0-.414-1.28.348.348,0,0,1,.647-.258,10.8,10.8,0,0,1,.442,1.369.349.349,0,0,1-.338.432Zm-4.741-2.244h-.027a4.455,4.455,0,0,1-1.464-.34.348.348,0,1,1,.281-.636,3.785,3.785,0,0,0,1.235.283.348.348,0,0,1-.026.7Zm1.388-.031a.348.348,0,0,1-.036-.694q.446-.048.888-.131.225-.043.448-.091a.348.348,0,1,1,.148.68q-.229.05-.466.1-.469.089-.945.139l-.038,0Zm2.326-.306a.349.349,0,0,1-.3-.179,10.048,10.048,0,0,0-.732-1.129.348.348,0,0,1,.558-.417q.316.423.59.875a.343.343,0,0,1,.167-.119,9.45,9.45,0,0,0,1.238-.514.348.348,0,1,1,.314.622,10.071,10.071,0,0,1-1.331.552.331.331,0,0,1-.155.016A.349.349,0,0,1,199.581,143.387Zm-6.1-.871a.347.347,0,0,1-.307-.184,2.017,2.017,0,0,1-.241-.964,2.192,2.192,0,0,1,.1-.654.348.348,0,0,1,.665.208,1.506,1.506,0,0,0-.07.447,1.334,1.334,0,0,0,.158.635.348.348,0,0,1-.307.512Zm8.948-.689a.348.348,0,0,1-.212-.624,5.781,5.781,0,0,0,.944-.907.348.348,0,0,1,.537.443,6.46,6.46,0,0,1-1.057,1.017A.347.347,0,0,1,202.433,141.827Zm-4.524-.657a.349.349,0,0,1-.243-.1,6.3,6.3,0,0,0-1.027-.825.348.348,0,1,1,.371-.589,7.033,7.033,0,0,1,1.142.916.348.348,0,0,1-.243.6Zm-3.705-1.085a.348.348,0,0,1-.187-.642,2.357,2.357,0,0,1,1.561-.34.348.348,0,0,1-.082.692,1.658,1.658,0,0,0-1.107.236A.346.346,0,0,1,194.2,140.085Zm9.974-.392a.348.348,0,0,1-.314-.5,5.892,5.892,0,0,0,.422-1.241.348.348,0,1,1,.68.152,6.581,6.581,0,0,1-.474,1.389A.347.347,0,0,1,204.178,139.693ZM204.8,137h-.012a.348.348,0,0,1-.337-.36c0-.1,0-.192,0-.288a9.768,9.768,0,0,0-.06-1.053.349.349,0,0,1,.692-.076,10.435,10.435,0,0,1,.064,1.129c0,.1,0,.208,0,.312a.349.349,0,0,1-.348.336Zm-.291-2.764a.348.348,0,0,1-.339-.271q-.153-.664-.365-1.311a.348.348,0,0,1,.662-.216c.151.463.279.925.381,1.373a.348.348,0,0,1-.339.426Zm-.862-2.648a.349.349,0,0,1-.321-.213c-.316-.749-.579-1.22-.581-1.225a.348.348,0,1,1,.606-.341,13.931,13.931,0,0,1,.616,1.3.349.349,0,0,1-.321.483Z" transform="translate(-71.344 -78.346)" fill="#241726"/>
  </g>
</svg>
