<svg xmlns="http://www.w3.org/2000/svg" width="300.707" height="113.727" viewBox="0 0 300.707 113.727">
  <g id="svgexport-30" transform="translate(-53.487 -64.906)">
    <g id="freepik--background-complete--inject-19" transform="translate(53.487 64.906)">
      <path id="Path_25631" data-name="Path 25631" d="M77.01,112.939H103.1V134.88h6.711V122.458h33.175v19.667h4.39V95.966h28.831V108.64h14.779V124.4h4.475v-9.914h26.207v29.587h7.669V120.018h23.972V101.753h16.3V91.35h18.855v46.141H294.8V118.24h31.056V145.8h4.3V123.3h31.495V103.035h16.07V205.077H77.01Z" transform="translate(-77.01 -91.35)" fill="rgba(7,134,107,0.55)"/>
      <rect id="Rectangle_19024" data-name="Rectangle 19024" width="3.298" height="4.523" transform="translate(5.39 24.975)" fill="rgba(7,134,107,0.55)"/>
      <rect id="Rectangle_19224" data-name="Rectangle 19224" width="3.298" height="4.523" transform="translate(5.39 49.341)" fill="rgba(7,134,107,0.55)"/>
      <rect id="Rectangle_19025" data-name="Rectangle 19025" width="3.298" height="4.523" transform="translate(11.107 24.975)" fill="rgba(7,134,107,0.55)"/>
      <rect id="Rectangle_19223" data-name="Rectangle 19223" width="3.298" height="4.523" transform="translate(11.107 49.341)" fill="rgba(7,134,107,0.55)"/>
      <rect id="Rectangle_19026" data-name="Rectangle 19026" width="3.298" height="4.523" transform="translate(16.821 24.975)" fill="rgba(7,134,107,0.55)"/>
      <rect id="Rectangle_19222" data-name="Rectangle 19222" width="3.298" height="4.523" transform="translate(16.821 49.341)" fill="rgba(7,134,107,0.55)"/>
      <rect id="Rectangle_19027" data-name="Rectangle 19027" width="3.298" height="4.523" transform="translate(5.39 31.218)" fill="rgba(7,134,107,0.55)"/>
      <rect id="Rectangle_19225" data-name="Rectangle 19225" width="3.298" height="4.523" transform="translate(5.39 55.585)" fill="rgba(7,134,107,0.55)"/>
      <rect id="Rectangle_19028" data-name="Rectangle 19028" width="3.298" height="4.523" transform="translate(11.107 31.218)" fill="rgba(7,134,107,0.55)"/>
      <rect id="Rectangle_19226" data-name="Rectangle 19226" width="3.298" height="4.523" transform="translate(11.107 55.585)" fill="rgba(7,134,107,0.55)"/>
      <rect id="Rectangle_19029" data-name="Rectangle 19029" width="3.298" height="4.523" transform="translate(16.821 31.218)" fill="rgba(7,134,107,0.55)"/>
      <rect id="Rectangle_19227" data-name="Rectangle 19227" width="3.298" height="4.523" transform="translate(16.821 55.585)" fill="rgba(7,134,107,0.55)"/>
      <rect id="Rectangle_19030" data-name="Rectangle 19030" width="3.298" height="4.523" transform="translate(5.39 37.458)" fill="rgba(7,134,107,0.55)"/>
      <rect id="Rectangle_19230" data-name="Rectangle 19230" width="3.298" height="4.523" transform="translate(5.39 61.825)" fill="rgba(7,134,107,0.55)"/>
      <rect id="Rectangle_19031" data-name="Rectangle 19031" width="3.298" height="4.523" transform="translate(11.107 37.458)" fill="rgba(7,134,107,0.55)"/>
      <rect id="Rectangle_19229" data-name="Rectangle 19229" width="3.298" height="4.523" transform="translate(11.107 61.825)" fill="rgba(7,134,107,0.55)"/>
      <rect id="Rectangle_19032" data-name="Rectangle 19032" width="3.298" height="4.523" transform="translate(16.821 37.458)" fill="rgba(7,134,107,0.55)"/>
      <rect id="Rectangle_19228" data-name="Rectangle 19228" width="3.298" height="4.523" transform="translate(16.821 61.825)" fill="rgba(7,134,107,0.55)"/>
      <rect id="Rectangle_19033" data-name="Rectangle 19033" width="3.298" height="4.523" transform="translate(5.39 43.698)" fill="rgba(7,134,107,0.55)"/>
      <rect id="Rectangle_19231" data-name="Rectangle 19231" width="3.298" height="4.523" transform="translate(5.39 68.065)" fill="rgba(7,134,107,0.55)"/>
      <rect id="Rectangle_19034" data-name="Rectangle 19034" width="3.298" height="4.523" transform="translate(11.107 43.698)" fill="rgba(7,134,107,0.55)"/>
      <rect id="Rectangle_19232" data-name="Rectangle 19232" width="3.298" height="4.523" transform="translate(11.107 68.065)" fill="rgba(7,134,107,0.55)"/>
      <rect id="Rectangle_19035" data-name="Rectangle 19035" width="3.298" height="4.523" transform="translate(16.821 43.698)" fill="rgba(7,134,107,0.55)"/>
      <rect id="Rectangle_19233" data-name="Rectangle 19233" width="3.298" height="4.523" transform="translate(16.821 68.065)" fill="rgba(7,134,107,0.55)"/>
      <rect id="Rectangle_19036" data-name="Rectangle 19036" width="3.298" height="3.773" transform="translate(156.598 32.232)" fill="rgba(7,134,107,0.55)"/>
      <rect id="Rectangle_19037" data-name="Rectangle 19037" width="3.298" height="3.773" transform="translate(164.276 32.232)" fill="rgba(7,134,107,0.55)"/>
      <rect id="Rectangle_19038" data-name="Rectangle 19038" width="3.298" height="3.773" transform="translate(171.954 32.232)" fill="rgba(7,134,107,0.55)"/>
      <rect id="Rectangle_19039" data-name="Rectangle 19039" width="3.298" height="3.773" transform="translate(156.598 37.438)" fill="rgba(7,134,107,0.55)"/>
      <rect id="Rectangle_19040" data-name="Rectangle 19040" width="3.298" height="3.773" transform="translate(164.276 37.438)" fill="rgba(7,134,107,0.55)"/>
      <rect id="Rectangle_19041" data-name="Rectangle 19041" width="3.298" height="3.773" transform="translate(171.954 37.438)" fill="rgba(7,134,107,0.55)"/>
      <rect id="Rectangle_19042" data-name="Rectangle 19042" width="3.298" height="3.773" transform="translate(156.598 42.649)" fill="rgba(7,134,107,0.55)"/>
      <rect id="Rectangle_19043" data-name="Rectangle 19043" width="3.298" height="3.773" transform="translate(164.276 42.649)" fill="rgba(7,134,107,0.55)"/>
      <rect id="Rectangle_19044" data-name="Rectangle 19044" width="3.298" height="3.773" transform="translate(171.954 42.649)" fill="rgba(7,134,107,0.55)"/>
      <rect id="Rectangle_19045" data-name="Rectangle 19045" width="3.298" height="3.773" transform="translate(156.598 47.859)" fill="rgba(7,134,107,0.55)"/>
      <rect id="Rectangle_19046" data-name="Rectangle 19046" width="3.298" height="3.773" transform="translate(164.276 47.859)" fill="rgba(7,134,107,0.55)"/>
      <rect id="Rectangle_19047" data-name="Rectangle 19047" width="3.298" height="3.773" transform="translate(171.954 47.859)" fill="rgba(7,134,107,0.55)"/>
      <rect id="Rectangle_19048" data-name="Rectangle 19048" width="3.298" height="3.773" transform="translate(156.598 53.197)" fill="rgba(7,134,107,0.55)"/>
      <rect id="Rectangle_19049" data-name="Rectangle 19049" width="3.298" height="3.773" transform="translate(164.276 53.197)" fill="rgba(7,134,107,0.55)"/>
      <rect id="Rectangle_19050" data-name="Rectangle 19050" width="3.298" height="3.773" transform="translate(171.954 53.197)" fill="rgba(7,134,107,0.55)"/>
      <rect id="Rectangle_19051" data-name="Rectangle 19051" width="3.298" height="3.773" transform="translate(156.598 58.538)" fill="rgba(7,134,107,0.55)"/>
      <rect id="Rectangle_19052" data-name="Rectangle 19052" width="3.298" height="3.773" transform="translate(164.276 58.538)" fill="rgba(7,134,107,0.55)"/>
      <rect id="Rectangle_19053" data-name="Rectangle 19053" width="3.298" height="3.773" transform="translate(171.954 58.538)" fill="rgba(7,134,107,0.55)"/>
      <rect id="Rectangle_19054" data-name="Rectangle 19054" width="3.298" height="3.773" transform="translate(156.598 63.876)" fill="rgba(7,134,107,0.55)"/>
      <rect id="Rectangle_19055" data-name="Rectangle 19055" width="3.298" height="3.773" transform="translate(164.276 63.876)" fill="rgba(7,134,107,0.55)"/>
      <rect id="Rectangle_19056" data-name="Rectangle 19056" width="3.298" height="3.773" transform="translate(171.954 63.876)" fill="rgba(7,134,107,0.55)"/>
      <rect id="Rectangle_19057" data-name="Rectangle 19057" width="3.298" height="3.773" transform="translate(156.598 69.214)" fill="rgba(7,134,107,0.55)"/>
      <rect id="Rectangle_19058" data-name="Rectangle 19058" width="3.298" height="3.773" transform="translate(164.276 69.214)" fill="rgba(7,134,107,0.55)"/>
      <rect id="Rectangle_19059" data-name="Rectangle 19059" width="3.298" height="3.773" transform="translate(171.954 69.214)" fill="rgba(7,134,107,0.55)"/>
      <rect id="Rectangle_19060" data-name="Rectangle 19060" width="18.981" height="2.831" transform="translate(39.318 34.357)" fill="rgba(7,134,107,0.55)"/>
      <rect id="Rectangle_19061" data-name="Rectangle 19061" width="18.981" height="2.831" transform="translate(39.318 39.398)" fill="rgba(7,134,107,0.55)"/>
      <rect id="Rectangle_19062" data-name="Rectangle 19062" width="18.981" height="2.831" transform="translate(39.318 44.436)" fill="rgba(7,134,107,0.55)"/>
      <rect id="Rectangle_19063" data-name="Rectangle 19063" width="18.981" height="2.831" transform="translate(39.318 49.477)" fill="rgba(7,134,107,0.55)"/>
      <rect id="Rectangle_19064" data-name="Rectangle 19064" width="18.981" height="2.831" transform="translate(39.318 54.518)" fill="rgba(7,134,107,0.55)"/>
      <rect id="Rectangle_19065" data-name="Rectangle 19065" width="18.981" height="2.831" transform="translate(39.318 59.559)" fill="rgba(7,134,107,0.55)"/>
      <rect id="Rectangle_19066" data-name="Rectangle 19066" width="18.981" height="2.831" transform="translate(39.318 64.596)" fill="rgba(7,134,107,0.55)"/>
      <rect id="Rectangle_19067" data-name="Rectangle 19067" width="18.981" height="2.831" transform="translate(39.318 69.637)" fill="rgba(7,134,107,0.55)"/>
      <rect id="Rectangle_19068" data-name="Rectangle 19068" width="17.451" height="2.831" transform="translate(224.263 29.939)" fill="rgba(7,134,107,0.55)"/>
      <rect id="Rectangle_19069" data-name="Rectangle 19069" width="17.451" height="2.831" transform="translate(224.263 34.977)" fill="rgba(7,134,107,0.55)"/>
      <rect id="Rectangle_19070" data-name="Rectangle 19070" width="17.451" height="2.831" transform="translate(224.263 40.018)" fill="rgba(7,134,107,0.55)"/>
      <rect id="Rectangle_19071" data-name="Rectangle 19071" width="17.451" height="2.831" transform="translate(224.263 45.059)" fill="rgba(7,134,107,0.55)"/>
      <rect id="Rectangle_19072" data-name="Rectangle 19072" width="17.451" height="2.831" transform="translate(224.263 50.096)" fill="rgba(7,134,107,0.55)"/>
      <rect id="Rectangle_19073" data-name="Rectangle 19073" width="17.451" height="2.831" transform="translate(224.263 55.137)" fill="rgba(7,134,107,0.55)"/>
      <rect id="Rectangle_19074" data-name="Rectangle 19074" width="17.451" height="2.831" transform="translate(224.263 60.178)" fill="rgba(7,134,107,0.55)"/>
      <rect id="Rectangle_19075" data-name="Rectangle 19075" width="17.451" height="2.831" transform="translate(224.263 65.219)" fill="rgba(7,134,107,0.55)"/>
      <rect id="Rectangle_19076" data-name="Rectangle 19076" width="17.451" height="2.831" transform="translate(224.263 70.008)" fill="rgba(7,134,107,0.55)"/>
      <rect id="Rectangle_19077" data-name="Rectangle 19077" width="17.451" height="2.831" transform="translate(224.263 74.796)" fill="rgba(7,134,107,0.55)"/>
      <rect id="Rectangle_19078" data-name="Rectangle 19078" width="17.451" height="2.831" transform="translate(224.263 79.584)" fill="rgba(7,134,107,0.55)"/>
      <rect id="Rectangle_19079" data-name="Rectangle 19079" width="17.451" height="2.831" transform="translate(224.263 84.373)" fill="rgba(7,134,107,0.55)"/>
      <rect id="Rectangle_19080" data-name="Rectangle 19080" width="17.451" height="2.831" transform="translate(224.263 87.219)" fill="rgba(7,134,107,0.55)"/>
      <rect id="Rectangle_19081" data-name="Rectangle 19081" width="18.434" height="2.831" transform="translate(259.806 36.025)" fill="rgba(7,134,107,0.55)"/>
      <rect id="Rectangle_19082" data-name="Rectangle 19082" width="18.434" height="2.831" transform="translate(259.806 41.066)" fill="rgba(7,134,107,0.55)"/>
      <rect id="Rectangle_19083" data-name="Rectangle 19083" width="18.434" height="2.831" transform="translate(259.806 46.107)" fill="rgba(7,134,107,0.55)"/>
      <rect id="Rectangle_19084" data-name="Rectangle 19084" width="18.434" height="2.831" transform="translate(259.806 51.145)" fill="rgba(7,134,107,0.55)"/>
      <rect id="Rectangle_19085" data-name="Rectangle 19085" width="18.434" height="2.831" transform="translate(259.806 56.186)" fill="rgba(7,134,107,0.55)"/>
      <rect id="Rectangle_19086" data-name="Rectangle 19086" width="18.434" height="2.831" transform="translate(259.806 61.227)" fill="rgba(7,134,107,0.55)"/>
      <rect id="Rectangle_19087" data-name="Rectangle 19087" width="18.434" height="2.831" transform="translate(259.806 66.264)" fill="rgba(7,134,107,0.55)"/>
      <rect id="Rectangle_19088" data-name="Rectangle 19088" width="18.434" height="2.831" transform="translate(259.806 71.305)" fill="rgba(7,134,107,0.55)"/>
      <rect id="Rectangle_19089" data-name="Rectangle 19089" width="18.434" height="2.831" transform="translate(259.806 75.817)" fill="rgba(7,134,107,0.55)"/>
      <rect id="Rectangle_19090" data-name="Rectangle 19090" width="18.434" height="2.831" transform="translate(259.806 80.328)" fill="rgba(7,134,107,0.55)"/>
      <rect id="Rectangle_19091" data-name="Rectangle 19091" width="18.434" height="2.831" transform="translate(259.806 84.84)" fill="rgba(7,134,107,0.55)"/>
      <rect id="Rectangle_19092" data-name="Rectangle 19092" width="5.861" height="2.733" transform="translate(123.974 26.156)" fill="rgba(7,134,107,0.55)"/>
      <rect id="Rectangle_19093" data-name="Rectangle 19093" width="5.861" height="2.733" transform="translate(123.974 31.024)" fill="rgba(7,134,107,0.55)"/>
      <rect id="Rectangle_19094" data-name="Rectangle 19094" width="5.861" height="2.733" transform="translate(123.974 35.892)" fill="rgba(7,134,107,0.55)"/>
      <rect id="Rectangle_19095" data-name="Rectangle 19095" width="5.861" height="2.733" transform="translate(123.974 40.757)" fill="rgba(7,134,107,0.55)"/>
      <rect id="Rectangle_19096" data-name="Rectangle 19096" width="5.861" height="2.733" transform="translate(123.974 45.626)" fill="rgba(7,134,107,0.55)"/>
      <rect id="Rectangle_19097" data-name="Rectangle 19097" width="5.861" height="2.733" transform="translate(123.974 50.494)" fill="rgba(7,134,107,0.55)"/>
      <rect id="Rectangle_19239" data-name="Rectangle 19239" width="5.861" height="2.733" transform="translate(123.974 64.174)" fill="rgba(7,134,107,0.55)"/>
      <rect id="Rectangle_19098" data-name="Rectangle 19098" width="5.861" height="2.733" transform="translate(123.974 55.362)" fill="rgba(7,134,107,0.55)"/>
      <rect id="Rectangle_19236" data-name="Rectangle 19236" width="5.861" height="2.733" transform="translate(123.974 69.042)" fill="rgba(7,134,107,0.55)"/>
      <rect id="Rectangle_19099" data-name="Rectangle 19099" width="5.861" height="2.733" transform="translate(123.974 60.227)" fill="rgba(7,134,107,0.55)"/>
      <rect id="Rectangle_19235" data-name="Rectangle 19235" width="5.861" height="2.733" transform="translate(123.974 73.907)" fill="rgba(7,134,107,0.55)"/>
      <rect id="Rectangle_19100" data-name="Rectangle 19100" width="5.861" height="2.733" transform="translate(134.723 26.156)" fill="rgba(7,134,107,0.55)"/>
      <rect id="Rectangle_19101" data-name="Rectangle 19101" width="5.861" height="2.733" transform="translate(134.723 31.024)" fill="rgba(7,134,107,0.55)"/>
      <rect id="Rectangle_19102" data-name="Rectangle 19102" width="5.861" height="2.733" transform="translate(134.723 35.892)" fill="rgba(7,134,107,0.55)"/>
      <rect id="Rectangle_19103" data-name="Rectangle 19103" width="5.861" height="2.733" transform="translate(134.723 40.757)" fill="rgba(7,134,107,0.55)"/>
      <rect id="Rectangle_19104" data-name="Rectangle 19104" width="5.861" height="2.733" transform="translate(134.723 45.626)" fill="rgba(7,134,107,0.55)"/>
      <rect id="Rectangle_19105" data-name="Rectangle 19105" width="5.861" height="2.733" transform="translate(134.723 50.494)" fill="rgba(7,134,107,0.55)"/>
      <rect id="Rectangle_19238" data-name="Rectangle 19238" width="5.861" height="2.733" transform="translate(134.723 64.174)" fill="rgba(7,134,107,0.55)"/>
      <rect id="Rectangle_19106" data-name="Rectangle 19106" width="5.861" height="2.733" transform="translate(134.723 55.362)" fill="rgba(7,134,107,0.55)"/>
      <rect id="Rectangle_19237" data-name="Rectangle 19237" width="5.861" height="2.733" transform="translate(134.723 69.042)" fill="rgba(7,134,107,0.55)"/>
      <rect id="Rectangle_19107" data-name="Rectangle 19107" width="5.861" height="2.733" transform="translate(134.723 60.227)" fill="rgba(7,134,107,0.55)"/>
      <rect id="Rectangle_19234" data-name="Rectangle 19234" width="5.861" height="2.733" transform="translate(134.723 73.907)" fill="rgba(7,134,107,0.55)"/>
      <rect id="Rectangle_19108" data-name="Rectangle 19108" width="6.106" height="4.308" transform="translate(75.269 7.847)" fill="rgba(7,134,107,0.55)"/>
      <rect id="Rectangle_19109" data-name="Rectangle 19109" width="6.106" height="4.308" transform="translate(87.54 7.847)" fill="rgba(7,134,107,0.55)"/>
      <rect id="Rectangle_19110" data-name="Rectangle 19110" width="6.106" height="4.308" transform="translate(75.269 16.476)" fill="rgba(7,134,107,0.55)"/>
      <rect id="Rectangle_19111" data-name="Rectangle 19111" width="6.106" height="4.308" transform="translate(87.54 16.476)" fill="rgba(7,134,107,0.55)"/>
      <rect id="Rectangle_19112" data-name="Rectangle 19112" width="6.106" height="4.308" transform="translate(75.269 19.705)" fill="rgba(7,134,107,0.55)"/>
      <rect id="Rectangle_19113" data-name="Rectangle 19113" width="6.106" height="4.308" transform="translate(87.54 19.705)" fill="rgba(7,134,107,0.55)"/>
      <rect id="Rectangle_19114" data-name="Rectangle 19114" width="6.106" height="4.308" transform="translate(75.269 25.51)" fill="rgba(7,134,107,0.55)"/>
      <rect id="Rectangle_19115" data-name="Rectangle 19115" width="6.106" height="4.308" transform="translate(87.54 25.51)" fill="rgba(7,134,107,0.55)"/>
      <rect id="Rectangle_19116" data-name="Rectangle 19116" width="6.106" height="4.308" transform="translate(75.269 31.312)" fill="rgba(7,134,107,0.55)"/>
      <rect id="Rectangle_19117" data-name="Rectangle 19117" width="6.106" height="4.308" transform="translate(87.54 31.312)" fill="rgba(7,134,107,0.55)"/>
      <rect id="Rectangle_19118" data-name="Rectangle 19118" width="6.106" height="4.308" transform="translate(75.269 37.118)" fill="rgba(7,134,107,0.55)"/>
      <rect id="Rectangle_19119" data-name="Rectangle 19119" width="6.106" height="4.308" transform="translate(87.54 37.118)" fill="rgba(7,134,107,0.55)"/>
      <rect id="Rectangle_19120" data-name="Rectangle 19120" width="6.106" height="4.308" transform="translate(75.269 42.924)" fill="rgba(7,134,107,0.55)"/>
      <rect id="Rectangle_19121" data-name="Rectangle 19121" width="6.106" height="4.308" transform="translate(87.54 42.924)" fill="rgba(7,134,107,0.55)"/>
      <rect id="Rectangle_19122" data-name="Rectangle 19122" width="6.106" height="4.308" transform="translate(75.269 48.726)" fill="rgba(7,134,107,0.55)"/>
      <rect id="Rectangle_19123" data-name="Rectangle 19123" width="6.106" height="4.308" transform="translate(87.54 48.726)" fill="rgba(7,134,107,0.55)"/>
      <rect id="Rectangle_19124" data-name="Rectangle 19124" width="6.106" height="4.308" transform="translate(102.753 19.705)" fill="rgba(7,134,107,0.55)"/>
      <rect id="Rectangle_19125" data-name="Rectangle 19125" width="6.106" height="4.308" transform="translate(102.753 25.51)" fill="rgba(7,134,107,0.55)"/>
      <rect id="Rectangle_19126" data-name="Rectangle 19126" width="6.106" height="4.308" transform="translate(102.753 31.312)" fill="rgba(7,134,107,0.55)"/>
      <rect id="Rectangle_19127" data-name="Rectangle 19127" width="6.106" height="4.308" transform="translate(102.753 37.118)" fill="rgba(7,134,107,0.55)"/>
      <rect id="Rectangle_19128" data-name="Rectangle 19128" width="6.106" height="4.308" transform="translate(102.753 42.924)" fill="rgba(7,134,107,0.55)"/>
      <rect id="Rectangle_19129" data-name="Rectangle 19129" width="6.106" height="4.308" transform="translate(102.753 48.726)" fill="rgba(7,134,107,0.55)"/>
      <rect id="Rectangle_19130" data-name="Rectangle 19130" width="6.106" height="4.308" transform="translate(75.269 54.462)" fill="rgba(7,134,107,0.55)"/>
      <rect id="Rectangle_19131" data-name="Rectangle 19131" width="6.106" height="4.308" transform="translate(87.54 54.462)" fill="rgba(7,134,107,0.55)"/>
      <rect id="Rectangle_19132" data-name="Rectangle 19132" width="6.106" height="4.308" transform="translate(102.753 54.462)" fill="rgba(7,134,107,0.55)"/>
      <rect id="Rectangle_19133" data-name="Rectangle 19133" width="6.106" height="4.308" transform="translate(75.269 60.195)" fill="rgba(7,134,107,0.55)"/>
      <rect id="Rectangle_19134" data-name="Rectangle 19134" width="6.106" height="4.308" transform="translate(87.54 60.195)" fill="rgba(7,134,107,0.55)"/>
      <rect id="Rectangle_19135" data-name="Rectangle 19135" width="6.106" height="4.308" transform="translate(102.753 60.195)" fill="rgba(7,134,107,0.55)"/>
      <rect id="Rectangle_19136" data-name="Rectangle 19136" width="6.106" height="4.308" transform="translate(75.269 65.932)" fill="rgba(7,134,107,0.55)"/>
      <rect id="Rectangle_19137" data-name="Rectangle 19137" width="6.106" height="4.308" transform="translate(87.54 65.932)" fill="rgba(7,134,107,0.55)"/>
      <rect id="Rectangle_19138" data-name="Rectangle 19138" width="6.106" height="4.308" transform="translate(102.753 65.932)" fill="rgba(7,134,107,0.55)"/>
      <rect id="Rectangle_19139" data-name="Rectangle 19139" width="6.106" height="4.308" transform="translate(75.269 71.668)" fill="rgba(7,134,107,0.55)"/>
      <rect id="Rectangle_19140" data-name="Rectangle 19140" width="6.106" height="4.308" transform="translate(87.54 71.668)" fill="rgba(7,134,107,0.55)"/>
      <rect id="Rectangle_19141" data-name="Rectangle 19141" width="6.106" height="4.308" transform="translate(102.753 71.668)" fill="rgba(7,134,107,0.55)"/>
      <rect id="Rectangle_19142" data-name="Rectangle 19142" width="6.106" height="4.308" transform="translate(75.269 77.401)" fill="rgba(7,134,107,0.55)"/>
      <rect id="Rectangle_19143" data-name="Rectangle 19143" width="6.106" height="4.308" transform="translate(87.54 77.401)" fill="rgba(7,134,107,0.55)"/>
      <rect id="Rectangle_19144" data-name="Rectangle 19144" width="6.106" height="4.308" transform="translate(102.753 77.401)" fill="rgba(7,134,107,0.55)"/>
      <rect id="Rectangle_19145" data-name="Rectangle 19145" width="3.298" height="3.773" transform="translate(180.305 16.27)" fill="rgba(7,134,107,0.55)"/>
      <rect id="Rectangle_19146" data-name="Rectangle 19146" width="3.298" height="3.773" transform="translate(187.983 16.27)" fill="rgba(7,134,107,0.55)"/>
      <rect id="Rectangle_19147" data-name="Rectangle 19147" width="3.298" height="3.773" transform="translate(180.305 22.439)" fill="rgba(7,134,107,0.55)"/>
      <rect id="Rectangle_19148" data-name="Rectangle 19148" width="3.298" height="3.773" transform="translate(187.983 22.439)" fill="rgba(7,134,107,0.55)"/>
      <rect id="Rectangle_19149" data-name="Rectangle 19149" width="3.298" height="3.773" transform="translate(180.305 24.159)" fill="rgba(7,134,107,0.55)"/>
      <rect id="Rectangle_19150" data-name="Rectangle 19150" width="3.298" height="3.773" transform="translate(187.983 24.159)" fill="rgba(7,134,107,0.55)"/>
      <rect id="Rectangle_19151" data-name="Rectangle 19151" width="3.298" height="3.773" transform="translate(180.305 29.366)" fill="rgba(7,134,107,0.55)"/>
      <rect id="Rectangle_19152" data-name="Rectangle 19152" width="3.298" height="3.773" transform="translate(187.983 29.366)" fill="rgba(7,134,107,0.55)"/>
      <rect id="Rectangle_19153" data-name="Rectangle 19153" width="3.298" height="3.773" transform="translate(180.305 34.707)" fill="rgba(7,134,107,0.55)"/>
      <rect id="Rectangle_19154" data-name="Rectangle 19154" width="3.298" height="3.773" transform="translate(187.983 34.707)" fill="rgba(7,134,107,0.55)"/>
      <rect id="Rectangle_19155" data-name="Rectangle 19155" width="3.298" height="3.773" transform="translate(180.305 40.045)" fill="rgba(7,134,107,0.55)"/>
      <rect id="Rectangle_19156" data-name="Rectangle 19156" width="3.298" height="3.773" transform="translate(187.983 40.045)" fill="rgba(7,134,107,0.55)"/>
      <rect id="Rectangle_19157" data-name="Rectangle 19157" width="3.298" height="3.773" transform="translate(180.305 45.383)" fill="rgba(7,134,107,0.55)"/>
      <rect id="Rectangle_19158" data-name="Rectangle 19158" width="3.298" height="3.773" transform="translate(187.983 45.383)" fill="rgba(7,134,107,0.55)"/>
      <rect id="Rectangle_19159" data-name="Rectangle 19159" width="3.298" height="3.773" transform="translate(180.305 50.721)" fill="rgba(7,134,107,0.55)"/>
      <rect id="Rectangle_19160" data-name="Rectangle 19160" width="3.298" height="3.773" transform="translate(187.983 50.721)" fill="rgba(7,134,107,0.55)"/>
      <rect id="Rectangle_19161" data-name="Rectangle 19161" width="3.298" height="3.773" transform="translate(180.305 56.118)" fill="rgba(7,134,107,0.55)"/>
      <rect id="Rectangle_19162" data-name="Rectangle 19162" width="3.298" height="3.773" transform="translate(187.983 56.118)" fill="rgba(7,134,107,0.55)"/>
      <rect id="Rectangle_19163" data-name="Rectangle 19163" width="3.298" height="3.773" transform="translate(180.305 61.511)" fill="rgba(7,134,107,0.55)"/>
      <rect id="Rectangle_19164" data-name="Rectangle 19164" width="3.298" height="3.773" transform="translate(187.983 61.511)" fill="rgba(7,134,107,0.55)"/>
      <rect id="Rectangle_19165" data-name="Rectangle 19165" width="3.298" height="3.773" transform="translate(180.305 66.908)" fill="rgba(7,134,107,0.55)"/>
      <rect id="Rectangle_19166" data-name="Rectangle 19166" width="3.298" height="3.773" transform="translate(187.983 66.908)" fill="rgba(7,134,107,0.55)"/>
      <rect id="Rectangle_19167" data-name="Rectangle 19167" width="3.298" height="3.773" transform="translate(180.305 72.305)" fill="rgba(7,134,107,0.55)"/>
      <rect id="Rectangle_19168" data-name="Rectangle 19168" width="3.298" height="3.773" transform="translate(187.983 72.305)" fill="rgba(7,134,107,0.55)"/>
      <rect id="Rectangle_19169" data-name="Rectangle 19169" width="3.298" height="4.447" transform="translate(287.768 16.949)" fill="rgba(7,134,107,0.55)"/>
      <rect id="Rectangle_19170" data-name="Rectangle 19170" width="3.298" height="4.447" transform="translate(293.482 16.949)" fill="rgba(7,134,107,0.55)"/>
      <rect id="Rectangle_19171" data-name="Rectangle 19171" width="3.298" height="4.447" transform="translate(287.768 20.432)" fill="rgba(7,134,107,0.55)"/>
      <rect id="Rectangle_19172" data-name="Rectangle 19172" width="3.298" height="4.447" transform="translate(293.482 20.432)" fill="rgba(7,134,107,0.55)"/>
      <rect id="Rectangle_19173" data-name="Rectangle 19173" width="3.298" height="4.447" transform="translate(287.768 26.566)" fill="rgba(7,134,107,0.55)"/>
      <rect id="Rectangle_19174" data-name="Rectangle 19174" width="3.298" height="4.447" transform="translate(293.482 26.566)" fill="rgba(7,134,107,0.55)"/>
      <rect id="Rectangle_19175" data-name="Rectangle 19175" width="3.298" height="4.447" transform="translate(287.768 32.702)" fill="rgba(7,134,107,0.55)"/>
      <rect id="Rectangle_19176" data-name="Rectangle 19176" width="3.298" height="4.447" transform="translate(293.482 32.702)" fill="rgba(7,134,107,0.55)"/>
      <rect id="Rectangle_19177" data-name="Rectangle 19177" width="3.298" height="4.447" transform="translate(287.768 38.987)" fill="rgba(7,134,107,0.55)"/>
      <rect id="Rectangle_19178" data-name="Rectangle 19178" width="3.298" height="4.447" transform="translate(293.482 38.987)" fill="rgba(7,134,107,0.55)"/>
      <rect id="Rectangle_19179" data-name="Rectangle 19179" width="3.298" height="4.447" transform="translate(287.768 45.273)" fill="rgba(7,134,107,0.55)"/>
      <rect id="Rectangle_19180" data-name="Rectangle 19180" width="3.298" height="4.447" transform="translate(293.482 45.273)" fill="rgba(7,134,107,0.55)"/>
      <rect id="Rectangle_19181" data-name="Rectangle 19181" width="3.298" height="4.447" transform="translate(287.768 51.558)" fill="rgba(7,134,107,0.55)"/>
      <rect id="Rectangle_19182" data-name="Rectangle 19182" width="3.298" height="4.447" transform="translate(293.482 51.558)" fill="rgba(7,134,107,0.55)"/>
      <rect id="Rectangle_19183" data-name="Rectangle 19183" width="3.298" height="4.447" transform="translate(287.768 57.843)" fill="rgba(7,134,107,0.55)"/>
      <rect id="Rectangle_19184" data-name="Rectangle 19184" width="3.298" height="4.447" transform="translate(293.482 57.843)" fill="rgba(7,134,107,0.55)"/>
      <rect id="Rectangle_19185" data-name="Rectangle 19185" width="3.298" height="4.447" transform="translate(287.768 64.197)" fill="rgba(7,134,107,0.55)"/>
      <rect id="Rectangle_19186" data-name="Rectangle 19186" width="3.298" height="4.447" transform="translate(293.482 64.197)" fill="rgba(7,134,107,0.55)"/>
      <rect id="Rectangle_19187" data-name="Rectangle 19187" width="3.298" height="4.447" transform="translate(287.768 70.548)" fill="rgba(7,134,107,0.55)"/>
      <rect id="Rectangle_19188" data-name="Rectangle 19188" width="3.298" height="4.447" transform="translate(293.482 70.548)" fill="rgba(7,134,107,0.55)"/>
      <rect id="Rectangle_19189" data-name="Rectangle 19189" width="3.298" height="4.447" transform="translate(287.768 76.903)" fill="rgba(7,134,107,0.55)"/>
      <rect id="Rectangle_19190" data-name="Rectangle 19190" width="3.298" height="4.447" transform="translate(293.482 76.903)" fill="rgba(7,134,107,0.55)"/>
      <rect id="Rectangle_19191" data-name="Rectangle 19191" width="3.298" height="4.447" transform="translate(287.768 83.254)" fill="rgba(7,134,107,0.55)"/>
      <rect id="Rectangle_19192" data-name="Rectangle 19192" width="3.298" height="4.447" transform="translate(293.482 83.254)" fill="rgba(7,134,107,0.55)"/>
      <rect id="Rectangle_19193" data-name="Rectangle 19193" width="3.298" height="3.773" transform="translate(196.725 16.27)" fill="rgba(7,134,107,0.55)"/>
      <rect id="Rectangle_19194" data-name="Rectangle 19194" width="3.298" height="3.773" transform="translate(204.403 16.27)" fill="rgba(7,134,107,0.55)"/>
      <rect id="Rectangle_19195" data-name="Rectangle 19195" width="3.298" height="3.773" transform="translate(196.725 8.175)" fill="rgba(7,134,107,0.55)"/>
      <rect id="Rectangle_19196" data-name="Rectangle 19196" width="3.298" height="3.773" transform="translate(204.403 8.175)" fill="rgba(7,134,107,0.55)"/>
      <rect id="Rectangle_19197" data-name="Rectangle 19197" width="3.298" height="3.773" transform="translate(196.725 2.352)" fill="rgba(7,134,107,0.55)"/>
      <rect id="Rectangle_19198" data-name="Rectangle 19198" width="3.298" height="3.773" transform="translate(204.403 2.352)" fill="rgba(7,134,107,0.55)"/>
      <rect id="Rectangle_19199" data-name="Rectangle 19199" width="3.298" height="3.773" transform="translate(196.725 22.439)" fill="rgba(7,134,107,0.55)"/>
      <rect id="Rectangle_19200" data-name="Rectangle 19200" width="3.298" height="3.773" transform="translate(204.403 22.439)" fill="rgba(7,134,107,0.55)"/>
      <rect id="Rectangle_19201" data-name="Rectangle 19201" width="3.298" height="3.773" transform="translate(196.725 24.159)" fill="rgba(7,134,107,0.55)"/>
      <rect id="Rectangle_19202" data-name="Rectangle 19202" width="3.298" height="3.773" transform="translate(204.403 24.159)" fill="rgba(7,134,107,0.55)"/>
      <rect id="Rectangle_19203" data-name="Rectangle 19203" width="3.298" height="3.773" transform="translate(196.725 29.366)" fill="rgba(7,134,107,0.55)"/>
      <rect id="Rectangle_19204" data-name="Rectangle 19204" width="3.298" height="3.773" transform="translate(204.403 29.366)" fill="rgba(7,134,107,0.55)"/>
      <rect id="Rectangle_19205" data-name="Rectangle 19205" width="3.298" height="3.773" transform="translate(196.725 34.707)" fill="rgba(7,134,107,0.55)"/>
      <rect id="Rectangle_19206" data-name="Rectangle 19206" width="3.298" height="3.773" transform="translate(204.403 34.707)" fill="rgba(7,134,107,0.55)"/>
      <rect id="Rectangle_19207" data-name="Rectangle 19207" width="3.298" height="3.773" transform="translate(196.725 40.045)" fill="rgba(7,134,107,0.55)"/>
      <rect id="Rectangle_19208" data-name="Rectangle 19208" width="3.298" height="3.773" transform="translate(204.403 40.045)" fill="rgba(7,134,107,0.55)"/>
      <rect id="Rectangle_19209" data-name="Rectangle 19209" width="3.298" height="3.773" transform="translate(196.725 45.383)" fill="rgba(7,134,107,0.55)"/>
      <rect id="Rectangle_19210" data-name="Rectangle 19210" width="3.298" height="3.773" transform="translate(204.403 45.383)" fill="rgba(7,134,107,0.55)"/>
      <rect id="Rectangle_19211" data-name="Rectangle 19211" width="3.298" height="3.773" transform="translate(196.725 50.721)" fill="rgba(7,134,107,0.55)"/>
      <rect id="Rectangle_19212" data-name="Rectangle 19212" width="3.298" height="3.773" transform="translate(204.403 50.721)" fill="rgba(7,134,107,0.55)"/>
      <rect id="Rectangle_19213" data-name="Rectangle 19213" width="3.298" height="3.773" transform="translate(196.725 56.118)" fill="rgba(7,134,107,0.55)"/>
      <rect id="Rectangle_19214" data-name="Rectangle 19214" width="3.298" height="3.773" transform="translate(204.403 56.118)" fill="rgba(7,134,107,0.55)"/>
      <rect id="Rectangle_19215" data-name="Rectangle 19215" width="3.298" height="3.773" transform="translate(196.725 61.511)" fill="rgba(7,134,107,0.55)"/>
      <rect id="Rectangle_19216" data-name="Rectangle 19216" width="3.298" height="3.773" transform="translate(204.403 61.511)" fill="rgba(7,134,107,0.55)"/>
      <rect id="Rectangle_19217" data-name="Rectangle 19217" width="3.298" height="3.773" transform="translate(196.725 66.908)" fill="rgba(7,134,107,0.55)"/>
      <rect id="Rectangle_19218" data-name="Rectangle 19218" width="3.298" height="3.773" transform="translate(204.403 66.908)" fill="rgba(7,134,107,0.55)"/>
      <rect id="Rectangle_19219" data-name="Rectangle 19219" width="3.298" height="3.773" transform="translate(196.725 72.305)" fill="rgba(7,134,107,0.55)"/>
      <rect id="Rectangle_19220" data-name="Rectangle 19220" width="3.298" height="3.773" transform="translate(204.403 72.305)" fill="rgba(7,134,107,0.55)"/>
    </g>
  </g>
</svg>
