<svg xmlns="http://www.w3.org/2000/svg" width="9.431" height="17.484" viewBox="0 0 9.431 17.484">
  <g id="svgexport-17_12_" data-name="svgexport-17 (12)" transform="translate(-39.998 -10.151)">
    <path id="Path_26090" data-name="Path 26090" d="M31.026,19.969H28.86c-.35,0-.46-.131-.46-.46V16.862c0-.35.131-.46.46-.46h2.166V14.477A4.861,4.861,0,0,1,31.617,12a3.631,3.631,0,0,1,1.948-1.619,4.869,4.869,0,0,1,1.685-.284h2.145c.306,0,.438.131.438.438v2.495c0,.306-.131.438-.438.438-.591,0-1.182,0-1.773.022a.79.79,0,0,0-.9.9c-.022.656,0,1.291,0,1.969h2.538c.35,0,.481.131.481.481v2.648c0,.35-.109.46-.481.46H34.724v7.134c0,.372-.109.5-.5.5H31.485c-.328,0-.46-.131-.46-.46Z" transform="translate(11.598 0.051)" fill="#fff"/>
  </g>
</svg>
