<svg xmlns="http://www.w3.org/2000/svg" width="8.436" height="11.595" viewBox="0 0 8.436 11.595">
  <path id="Path_26273" data-name="Path 26273" d="M16.376,13.065l-.011.009a4.005,4.005,0,0,1-.147,1.136c-.106.375-.289.729-.384,1.109a3.085,3.085,0,0,0,.389,2.187,4.885,4.885,0,0,1-2.1-1.274,4.184,4.184,0,0,1-1-1.914,4.255,4.255,0,0,1,.338-2.741A11.033,11.033,0,0,0,14,10.338a9.86,9.86,0,0,0,.3-1.311,4.541,4.541,0,0,1,.622,1.416A7.665,7.665,0,0,0,16.45,5.921,5.863,5.863,0,0,1,19.3,9.958,2.679,2.679,0,0,0,19.711,8.1c.144.171.289.345.418.527a6.673,6.673,0,0,1,1.236,5.01,5.159,5.159,0,0,1-1.14,2.385,6.033,6.033,0,0,1-2.085,1.494,7.5,7.5,0,0,0,.469-1.134,4.4,4.4,0,0,0-1.314-4.524,3.11,3.11,0,0,1,.18,1.46,5.412,5.412,0,0,1-.514,1.48,3.787,3.787,0,0,0-.585-1.734Z" transform="translate(-13.025 -5.921)" fill="#ff6701"/>
</svg>
