<svg xmlns="http://www.w3.org/2000/svg" width="14.895" height="14.895" viewBox="0 0 14.895 14.895">
  <g id="svgexport-17_6_" data-name="svgexport-17 (6)" transform="translate(13 -2)">
    <g id="Layer_2" data-name="Layer 2" transform="translate(-13 2)">
      <path id="Path_26070" data-name="Path 26070" d="M15.222,15.18l-2.145-2.165a.094.094,0,0,0-.084-.035.119.119,0,0,0-.084.04l-1.43,1.514a.985.985,0,0,1-1.44,0L6.971,11.263a.119.119,0,0,0-.159,0L2.036,14.987l-.616-.8,4.756-3.724a1.107,1.107,0,0,1,1.489.119l3.063,3.272,1.42-1.514a1.1,1.1,0,0,1,.794-.353,1.082,1.082,0,0,1,.8.328l2.145,2.165Z" transform="translate(-1.211 -5.648)" fill="#fff"/>
      <path id="Path_26071" data-name="Path 26071" d="M13.948,15.895h-11A1.946,1.946,0,0,1,1,13.948v-11A1.946,1.946,0,0,1,2.946,1h11a1.946,1.946,0,0,1,1.946,1.946v11A1.946,1.946,0,0,1,13.948,15.895Zm-11-13.9a.953.953,0,0,0-.953.953v11a.953.953,0,0,0,.953.953h11a.953.953,0,0,0,.953-.953v-11a.953.953,0,0,0-.953-.953Z" transform="translate(-1 -1)" fill="#fff"/>
      <circle id="Ellipse_41" data-name="Ellipse 41" cx="0.993" cy="0.993" r="0.993" transform="translate(8.604 3.391)" fill="#fff"/>
      <path id="Path_26072" data-name="Path 26072" d="M2,15.532l4.731-3.808.874-.1,2.865,3.058s.5.68.918.213l1.425-1.514s.283-.621.889,0,2.2,2.651,2.2,2.651l-.035,3.59a1.444,1.444,0,0,1-1.609,1.127c-1.46,0-10.923-.154-10.923-.154S2,20.919,2,19.3Z" transform="translate(-1.504 -6.347)" fill="#fff"/>
    </g>
  </g>
</svg>
