<svg id="svgexport-6_-_2022-09-05T093004.242" data-name="svgexport-6 - 2022-09-05T093004.242" xmlns="http://www.w3.org/2000/svg" width="16.362" height="16.362" viewBox="0 0 16.362 16.362">
  <path id="Path_848" data-name="Path 848" d="M274.339,211.479h-6.674a.534.534,0,0,0-.534.534v2.132a.534.534,0,0,0,.534.534h3.758a5.018,5.018,0,0,1-2.16,2.531l1.6,2.774a8.022,8.022,0,0,0,4.091-7.016,5.409,5.409,0,0,0-.092-1.048A.536.536,0,0,0,274.339,211.479Z" transform="translate(-258.594 -204.721)" fill="#167ee6"/>
  <path id="Path_849" data-name="Path 849" d="M41.492,336.339a4.979,4.979,0,0,1-4.307-2.492l-2.774,1.6a8.174,8.174,0,0,0,11.172,3v0l-1.6-2.774A4.942,4.942,0,0,1,41.492,336.339Z" transform="translate(-33.311 -323.178)" fill="#12b347"/>
  <path id="Path_850" data-name="Path 850" d="M260.091,393.557v0l-1.6-2.774a4.943,4.943,0,0,1-2.488.673v3.2A8.168,8.168,0,0,0,260.091,393.557Z" transform="translate(-247.819 -378.291)" fill="#0f993e"/>
  <path id="Path_851" data-name="Path 851" d="M3.2,132.206a4.943,4.943,0,0,1,.672-2.488l-2.774-1.6a8.144,8.144,0,0,0,0,8.173l2.774-1.6A4.943,4.943,0,0,1,3.2,132.206Z" transform="translate(0 -124.025)" fill="#ffd500"/>
  <path id="Path_852" data-name="Path 852" d="M41.492,3.2a4.957,4.957,0,0,1,3.162,1.135.532.532,0,0,0,.715-.032L46.88,2.794a.538.538,0,0,0-.031-.786A8.163,8.163,0,0,0,34.411,4.094l2.774,1.6A4.979,4.979,0,0,1,41.492,3.2Z" transform="translate(-33.311)" fill="#ff4b26"/>
  <path id="Path_853" data-name="Path 853" d="M259.162,4.336a.532.532,0,0,0,.715-.032l1.511-1.511a.538.538,0,0,0-.031-.786A8.156,8.156,0,0,0,256,0V3.2A4.957,4.957,0,0,1,259.162,4.336Z" transform="translate(-247.819 0)" fill="#d93f21"/>
</svg>
