<svg xmlns="http://www.w3.org/2000/svg" width="19.282" height="21.149" viewBox="0 0 19.282 21.149">
  <g id="svgexport-17_2_" data-name="svgexport-17 (2)" transform="translate(-4.09 -5.33)">
    <path id="Path_25637" data-name="Path 25637" d="M24.282,12.345v11.77a2.264,2.264,0,0,1-2.142,2.364H18.569A1.508,1.508,0,0,1,17.14,24.9V20.568a.754.754,0,0,0-.714-.788H12.856a.754.754,0,0,0-.714.788V24.9a1.508,1.508,0,0,1-1.428,1.576H7.142A2.264,2.264,0,0,1,5,24.115V12.345a1.624,1.624,0,0,1,.693-1.352l8.213-5.438a1.314,1.314,0,0,1,1.47,0l8.213,5.438A1.624,1.624,0,0,1,24.282,12.345Z" transform="translate(-0.91 0)" fill="#15ac8b"/>
  </g>
</svg>
