<svg id="svgexport-17_14_" data-name="svgexport-17 (14)" xmlns="http://www.w3.org/2000/svg" width="12.647" height="10.064" viewBox="0 0 12.647 10.064">
  <path id="Path_26005" data-name="Path 26005" d="M70.216,120.939l-4.51,3.718a.107.107,0,0,1,0,.023.107.107,0,0,0,0,.023v3.765a.509.509,0,0,0,.5.5h3.012v-3.012H71.22v3.012h3.012a.51.51,0,0,0,.5-.5V124.7a.11.11,0,0,0-.008-.047Z" transform="translate(-63.893 -118.907)" fill="#a5a5a5"/>
  <path id="Path_26006" data-name="Path 26006" d="M12.559,51.9l-1.718-1.428v-3.2a.242.242,0,0,0-.251-.251H9.084a.241.241,0,0,0-.251.251V48.8L6.919,47.2a.973.973,0,0,0-1.192,0L.087,51.9A.228.228,0,0,0,0,52.065a.254.254,0,0,0,.055.184l.486.58a.268.268,0,0,0,.165.086.292.292,0,0,0,.188-.055l5.428-4.526,5.428,4.526a.242.242,0,0,0,.165.055h.024a.268.268,0,0,0,.165-.086l.486-.58a.254.254,0,0,0,.055-.185A.229.229,0,0,0,12.559,51.9Z" transform="translate(0.001 -46.994)" fill="#a5a5a5"/>
</svg>
