<svg xmlns="http://www.w3.org/2000/svg" width="14.718" height="10.348" viewBox="0 0 14.718 10.348">
  <g id="svgexport-17_28_" data-name="svgexport-17 (28)" transform="translate(0 -76)">
    <path id="Path_26042" data-name="Path 26042" d="M35.009,277.251l-1.233,1.237a1.364,1.364,0,0,1-1.89,0l-1.233-1.237-4.427,4.442a1.281,1.281,0,0,0,.54.122H38.9a1.28,1.28,0,0,0,.54-.122Z" transform="translate(-25.472 -195.466)" fill="#6c6c6c"/>
    <path id="Path_26043" data-name="Path 26043" d="M13.424,76H1.294a1.28,1.28,0,0,0-.54.122l4.731,4.747h0l1.538,1.543a.518.518,0,0,0,.669,0L9.231,80.87h0l4.731-4.747A1.28,1.28,0,0,0,13.424,76ZM.138,76.725A1.278,1.278,0,0,0,0,77.294v7.761a1.277,1.277,0,0,0,.138.569l4.435-4.449Zm14.443,0-4.435,4.45,4.435,4.449a1.278,1.278,0,0,0,.138-.569V77.294A1.278,1.278,0,0,0,14.58,76.725Z" fill="#6c6c6c"/>
  </g>
</svg>
