<svg xmlns="http://www.w3.org/2000/svg" width="14.255" height="14.207" viewBox="0 0 14.255 14.207">
  <g id="svgexport-17_26_" data-name="svgexport-17 (26)" transform="translate(0 -9.055)">
    <path id="Path_26037" data-name="Path 26037" d="M6.709,7.549V5.011H4.072a15.285,15.285,0,0,0-.25,2.538Zm0-3.375V.864c-.979.244-1.915,1.363-2.445,3.31ZM2.986,8.386H0A7.063,7.063,0,0,0,.617,10.9H3.222A16.494,16.494,0,0,1,2.986,8.386ZM0,7.549H2.985a16.418,16.418,0,0,1,.235-2.538H.63A7.063,7.063,0,0,0,0,7.549ZM7.546.867V4.174H9.983A7.646,7.646,0,0,0,9.321,2.5,3.077,3.077,0,0,0,7.546.867ZM6.709,8.386H3.823a15.3,15.3,0,0,0,.249,2.51H6.709V8.386Zm3.344-6.295a8.7,8.7,0,0,1,.794,2.083h2.324a7.249,7.249,0,0,0-1-1.25,7.141,7.141,0,0,0-2.706-1.7,5.59,5.59,0,0,1,.589.87Zm.379,5.458a15.253,15.253,0,0,0-.254-2.538H7.546V7.549Zm.431,4.184a8.687,8.687,0,0,1-.8,2.124,5.568,5.568,0,0,1-.574.851,7.142,7.142,0,0,0,2.685-1.7,7.245,7.245,0,0,0,1.018-1.278ZM3.4,4.174a8.66,8.66,0,0,1,.8-2.1,5.568,5.568,0,0,1,.574-.851,7.142,7.142,0,0,0-2.686,1.7,7.249,7.249,0,0,0-1,1.25H3.4Zm7.629.837a16.454,16.454,0,0,1,.242,2.538h2.986a7.063,7.063,0,0,0-.63-2.538ZM4.2,13.844a8.729,8.729,0,0,1-.8-2.111H1.066A7.247,7.247,0,0,0,2.084,13.01a7.141,7.141,0,0,0,2.706,1.7,5.588,5.588,0,0,1-.588-.87ZM7.546,8.386V10.9h2.642a15.322,15.322,0,0,0,.245-2.51Zm6.709,0H11.27a16.455,16.455,0,0,1-.23,2.51h2.6a7.064,7.064,0,0,0,.617-2.51ZM7.546,11.733v3.338C8.53,14.825,9.47,13.7,10,11.733Zm-.837,3.335V11.733H4.264a7.674,7.674,0,0,0,.67,1.706A3.078,3.078,0,0,0,6.709,15.067Z" transform="translate(0 8.191)" fill="#6c6c6c"/>
  </g>
</svg>
