<svg xmlns="http://www.w3.org/2000/svg" xmlns:xlink="http://www.w3.org/1999/xlink" width="22.528" height="22.528" viewBox="0 0 22.528 22.528">
  <defs>
    <clipPath id="clip-path">
      <path id="Path_26046" data-name="Path 26046" d="M0,0H22.528V22.528H0Z" fill="#f10d0d"/>
    </clipPath>
  </defs>
  <g id="svgexport-17_30_" data-name="svgexport-17 (30)" transform="translate(0 0.703)">
    <g id="Group_76647" data-name="Group 76647" transform="translate(0 -0.703)" clip-path="url(#clip-path)">
      <path id="Path_26045" data-name="Path 26045" d="M7.525,7.006a7,7,0,0,1,.307-2.968A2.816,2.816,0,0,1,9.062,2.807,7,7,0,0,1,12.03,2.5h2.253a7,7,0,0,1,2.968.307,2.816,2.816,0,0,1,1.231,1.231,7,7,0,0,1,.307,2.968v8.823a7,7,0,0,1-.307,2.968,2.816,2.816,0,0,1-1.231,1.231,7,7,0,0,1-2.968.307H12.03a7,7,0,0,1-2.968-.307A2.816,2.816,0,0,1,7.832,18.8a7,7,0,0,1-.307-2.968V14.468h3.755a3.051,3.051,0,1,0,0-6.1H7.525ZM5.069,9.431a1.173,1.173,0,0,0-1.66-1.66L.594,10.587a1.173,1.173,0,0,0,0,1.66L3.41,15.063a1.173,1.173,0,0,0,1.66-1.66l-.813-.813h7.023a1.173,1.173,0,0,0,0-2.347H4.256Z" transform="translate(-0.015 -0.153)" fill="#f10d0d" fill-rule="evenodd"/>
    </g>
  </g>
</svg>
