<svg xmlns="http://www.w3.org/2000/svg" width="14.585" height="10.209" viewBox="0 0 14.585 10.209">
  <g id="svgexport-17" transform="translate(0 -15)">
    <path id="Path_26053" data-name="Path 26053" d="M14.585,17.348v6.957a.9.9,0,0,1-.89.9H2.334a.891.891,0,0,1-.875-.7H12.251a1.609,1.609,0,0,0,1.619-1.634V16.458A.905.905,0,0,1,14.585,17.348Zm-7.6,2.523a.782.782,0,0,0-.16-.073v.423c.219-.058.219-.175.219-.248A.077.077,0,0,0,6.986,19.871Zm-.861-1.079a.158.158,0,0,0,.058.131c.044.029.088.044.131.073v-.423c-.044.015-.073.044-.117.058a.234.234,0,0,0-.073.16Zm4.857-.481v2.159a1.554,1.554,0,0,0-1.138,1.138H3.3a1.554,1.554,0,0,0-1.138-1.138V18.311A1.554,1.554,0,0,0,3.3,17.173H9.845A1.578,1.578,0,0,0,10.982,18.311ZM7.657,19.988a.664.664,0,0,0-.146-.467.889.889,0,0,0-.35-.263,3.282,3.282,0,0,0-.35-.117v-.6a2.759,2.759,0,0,1,.335.073.275.275,0,0,0,.117.029.262.262,0,0,0,.219-.1.348.348,0,0,0,.073-.2.269.269,0,0,0-.2-.277,2.225,2.225,0,0,0-.54-.117v-.117a.307.307,0,0,0-.073-.19.255.255,0,0,0-.365,0,.269.269,0,0,0-.073.175v.131a.785.785,0,0,0-.365.131A1,1,0,0,0,5.6,18.4a.879.879,0,0,0-.117.423.729.729,0,0,0,.146.452.843.843,0,0,0,.335.263,2.267,2.267,0,0,0,.335.117v.569a1.314,1.314,0,0,1-.408-.117.314.314,0,0,0-.35.058.227.227,0,0,0-.073.2.28.28,0,0,0,.058.175.5.5,0,0,0,.131.117,2.464,2.464,0,0,0,.642.175v.131a.307.307,0,0,0,.073.19.269.269,0,0,0,.175.073h.015a.249.249,0,0,0,.248-.263v-.131a1.5,1.5,0,0,0,.365-.1.988.988,0,0,0,.35-.292A.8.8,0,0,0,7.657,19.988Zm4.594,3.778H.9a.909.909,0,0,1-.9-.9V15.9A.909.909,0,0,1,.9,15H12.251a.909.909,0,0,1,.9.9v6.957A.909.909,0,0,1,12.251,23.766Zm-.54-5.776a.361.361,0,0,0-.365-.365.794.794,0,0,1-.8-.817.361.361,0,0,0-.365-.365h-7.2a.361.361,0,0,0-.365.365.815.815,0,0,1-.817.817.361.361,0,0,0-.365.365v2.8a.361.361,0,0,0,.365.365.815.815,0,0,1,.817.817.361.361,0,0,0,.365.365h7.19a.361.361,0,0,0,.365-.365.815.815,0,0,1,.817-.817.361.361,0,0,0,.365-.365Z" fill="#6c6c6c"/>
  </g>
</svg>
