<svg xmlns="http://www.w3.org/2000/svg" width="27.544" height="25.675" viewBox="0 0 27.544 25.675">
  <g id="svgexport-17_23_" data-name="svgexport-17 (23)" transform="translate(-15.967 -19.242)">
    <g id="Group_76639" data-name="Group 76639" transform="translate(15.967 19.242)">
      <path id="Path_26030" data-name="Path 26030" d="M38.074,77.786a.286.286,0,0,0-.286-.286h-2a.286.286,0,0,0-.286.286v4a.286.286,0,0,0,.286.286h2a.286.286,0,0,0,.286-.286Zm14.016,0A.286.286,0,0,0,51.8,77.5h-2a.286.286,0,0,0-.286.286v4a.286.286,0,0,0,.286.286h2a.286.286,0,0,0,.286-.286Z" transform="translate(-29.913 -60.835)" fill="#15ac8b"/>
      <path id="Path_26031" data-name="Path 26031" d="M24.286,59.2A.286.286,0,0,1,24,58.91V50.675a.422.422,0,0,1,.2-.317.56.56,0,0,0,.063-.054L35.24,39.326a.286.286,0,0,1,.4,0L46.228,49.909a.287.287,0,0,1,.084.2v8.8a.286.286,0,0,1-.286.286H39.16a.286.286,0,0,1-.286-.286V50.185a1.144,1.144,0,0,0-1.144-1.144H33.3a1.144,1.144,0,0,0-1.144,1.144V58.91a.286.286,0,0,1-.286.286Zm1.859-9.01a1.144,1.144,0,0,1,1.144-1.144h2.574a1.144,1.144,0,0,1,1.144,1.144v4.577a1.144,1.144,0,0,1-1.144,1.144H27.29a1.144,1.144,0,0,1-1.144-1.144Zm14.016,0a1.144,1.144,0,0,1,1.144-1.144H43.88a1.144,1.144,0,0,1,1.144,1.144v4.577a1.144,1.144,0,0,1-1.144,1.144H41.306a1.144,1.144,0,0,1-1.144-1.144Z" transform="translate(-21.702 -33.521)" fill-rule="evenodd"/>
      <path id="Path_26032" data-name="Path 26032" d="M31.709,35.906a.286.286,0,0,1,.286.286v8.438a.286.286,0,0,1-.286.286H27.847a.286.286,0,0,1-.286-.286V36.192a.286.286,0,0,1,.286-.286ZM22.7,21.175a.286.286,0,0,1,.286.286v2.648a.286.286,0,0,1-.084.2l-2,2a.286.286,0,0,1-.488-.2v-4.65a.286.286,0,0,1,.286-.286ZM16.072,33.2a.286.286,0,0,1-.021-.423L29.5,19.326a.286.286,0,0,1,.4,0L43.427,32.843a.287.287,0,0,1,0,.4L41.78,34.895a.287.287,0,0,1-.4,0L30.111,23.631a.572.572,0,0,0-.809,0L18.266,34.666a.286.286,0,0,1-.383.019Z" transform="translate(-15.967 -19.242)" fill="#15ac8b"/>
    </g>
  </g>
</svg>
