<svg xmlns="http://www.w3.org/2000/svg" width="22.255" height="21.019" viewBox="0 0 22.255 21.019">
  <path id="Path_26250" data-name="Path 26250" d="M21.637,0H5.564a.618.618,0,0,0-.618.618V19.164a3.061,3.061,0,0,1-.634,1.855H19.164a3.094,3.094,0,0,0,3.091-3.091V.618A.618.618,0,0,0,21.637,0ZM17.928,16.073H9.273a.618.618,0,1,1,0-1.236h8.655a.618.618,0,1,1,0,1.236Zm0-3.709H9.273a.618.618,0,1,1,0-1.236h8.655a.618.618,0,1,1,0,1.236Zm0-3.709H9.273a.618.618,0,1,1,0-1.236h8.655a.618.618,0,1,1,0,1.236Zm0-3.709H9.273a.618.618,0,1,1,0-1.236h8.655a.618.618,0,1,1,0,1.236ZM3.091,2.473H.618A.618.618,0,0,0,0,3.091V19.164a1.855,1.855,0,1,0,3.709,0V3.091A.618.618,0,0,0,3.091,2.473Zm0,0" fill="#b3b3b3"/>
</svg>
