<svg xmlns="http://www.w3.org/2000/svg" width="21.181" height="22.695" viewBox="0 0 21.181 22.695">
  <path id="Path_26272" data-name="Path 26272" d="M11.449,18.066,9.308,20.2a2.279,2.279,0,0,1-3.215,0L3.952,18.059a2.283,2.283,0,0,1,0-3.208L6.093,12.71Zm10.16-5.893-9.63-9.623a.734.734,0,0,0-.643-.219.762.762,0,0,0-.56.393L6.441,10.918l6.816,6.816,8.17-4.357a.749.749,0,0,0,.393-.552A.765.765,0,0,0,21.608,12.173ZM5.026,21.266,2.885,19.125a3.607,3.607,0,0,1-.711-1,3.026,3.026,0,0,0,3.858,3.858,3.465,3.465,0,0,1-1.006-.719Zm8.828-.8-1.331-1.331-2.148,2.141a3.54,3.54,0,0,1-.59.477l1.392,1.392a1.9,1.9,0,0,0,2.678,0,1.9,1.9,0,0,0,0-2.678ZM16.373,3.269V1.756a.756.756,0,1,0-1.513,0V3.269a.756.756,0,1,0,1.513,0Zm6.808,5.3a.756.756,0,0,0-.756-.756H20.912a.756.756,0,1,0,0,1.513h1.513A.756.756,0,0,0,23.182,8.565Zm-4-2.491,1.513-1.513a.756.756,0,1,0-1.07-1.07L18.108,5a.756.756,0,1,0,1.07,1.07Z" transform="translate(-2.001 -1)" fill="#b3b3b3"/>
</svg>
