<svg xmlns="http://www.w3.org/2000/svg" width="16.488" height="17.332" viewBox="0 0 16.488 17.332">
  <g id="svgexport-17_19_" data-name="svgexport-17 (19)" transform="translate(-2.682 -2)">
    <path id="Path_26111" data-name="Path 26111" d="M4.16,6.661,2.718,15.754a3.1,3.1,0,0,0,3.058,3.578h10.3a3.1,3.1,0,0,0,3.058-3.578L17.691,6.661a1.84,1.84,0,0,0-1.832-1.566H14.584a3.71,3.71,0,0,0-7.317,0H5.992A1.841,1.841,0,0,0,4.16,6.661Zm6.766-3.423a2.476,2.476,0,0,1,2.389,1.857H8.536a2.476,2.476,0,0,1,2.389-1.857ZM7.831,7.571a.617.617,0,0,1,.619.619,2.476,2.476,0,0,0,4.952,0,.619.619,0,1,1,1.238,0,3.714,3.714,0,1,1-7.428,0A.617.617,0,0,1,7.831,7.571Z" fill="#6c6c6c"/>
  </g>
</svg>
