<svg xmlns="http://www.w3.org/2000/svg" width="17.39" height="9.545" viewBox="0 0 17.39 9.545">
  <g id="svgexport-17_11_" data-name="svgexport-17 (11)" transform="translate(0 -115.484)">
    <path id="Path_26085" data-name="Path 26085" d="M16.759,121.88h-.631a.14.14,0,0,0-.14.14v.121h-.351v-.121a.14.14,0,0,0-.14-.14h-.631a.14.14,0,0,0-.14.14v.121h-.351v-.121a.14.14,0,0,0-.14-.14H13.6a.14.14,0,0,0-.14.14v.121h-.351v-.121a.14.14,0,0,0-.14-.14h-.631a.14.14,0,0,0-.14.14v.121h-.351v-.121a.14.14,0,0,0-.14-.14h-.631a.14.14,0,0,0-.14.14v.121h-.351v-.121a.14.14,0,0,0-.14-.14H9.817a.14.14,0,0,0-.14.14v.121H9.326v-.121a.14.14,0,0,0-.14-.14H8.555a.14.14,0,0,0-.14.14v.121H8.064v-.121a.14.14,0,0,0-.14-.14H7.293a.14.14,0,0,0-.14.14v.121H6.8v-.121a.14.14,0,0,0-.14-.14H6.031a.14.14,0,0,0-.14.14v.121H5.54v-.121a.14.14,0,0,0-.14-.14H4.768a.14.14,0,0,0-.14.14v.121H4.277v-.121a.14.14,0,0,0-.14-.14H3.506a.14.14,0,0,0-.14.14v.121H3.015v-.121a.14.14,0,0,0-.14-.14H2.244a.14.14,0,0,0-.14.14v.121H1.753v-.121a.14.14,0,0,0-.14-.14H.982a.14.14,0,0,0-.14.14v.121H.491v-.121a.14.14,0,0,0-.14-.14H0v-3.246H.351a.14.14,0,0,0,.14-.14v-.121H.841v.121a.14.14,0,0,0,.14.14h.631a.14.14,0,0,0,.14-.14v-.121H2.1v.121a.14.14,0,0,0,.14.14h.631a.14.14,0,0,0,.14-.14v-.121h.351v.121a.14.14,0,0,0,.14.14h.631a.14.14,0,0,0,.14-.14v-.121h.351v.121a.14.14,0,0,0,.14.14H5.4a.14.14,0,0,0,.14-.14v-.121H5.89v.121a.14.14,0,0,0,.14.14h.631a.14.14,0,0,0,.14-.14v-.121h.351v.121a.14.14,0,0,0,.14.14h.631a.14.14,0,0,0,.14-.14v-.121h.351v.121a.14.14,0,0,0,.14.14h.631a.14.14,0,0,0,.14-.14v-.121h.35v.121a.14.14,0,0,0,.14.14h.631a.14.14,0,0,0,.14-.14v-.121h.351v.121a.14.14,0,0,0,.14.14h.631a.14.14,0,0,0,.14-.14v-.121H12.2v.121a.14.14,0,0,0,.14.14h.631a.14.14,0,0,0,.14-.14v-.121h.351v.121a.14.14,0,0,0,.14.14h.631a.14.14,0,0,0,.14-.14v-.121h.351v.121a.14.14,0,0,0,.14.14H15.5a.14.14,0,0,0,.14-.14v-.121h.351v.121a.14.14,0,0,0,.14.14h.631a.14.14,0,0,0,.14-.14v-.121h.491v3.769H16.9v-.121a.14.14,0,0,0-.14-.14Zm-15.288-6.4H15.919a1.473,1.473,0,0,1,1.472,1.471v1.136h-.631a.14.14,0,0,0-.14.14v.121h-.351v-.121a.14.14,0,0,0-.14-.14H15.5a.14.14,0,0,0-.14.14v.121h-.351v-.121a.14.14,0,0,0-.14-.14h-.631a.14.14,0,0,0-.14.14v.121h-.351v-.121a.14.14,0,0,0-.14-.14h-.631a.14.14,0,0,0-.14.14v.121h-.351v-.121a.14.14,0,0,0-.14-.14H11.71a.14.14,0,0,0-.14.14v.121H11.22v-.121a.14.14,0,0,0-.14-.14h-.631a.14.14,0,0,0-.14.14v.121H9.957v-.121a.14.14,0,0,0-.14-.14H9.186a.14.14,0,0,0-.14.14v.121H8.7v-.121a.14.14,0,0,0-.14-.14H7.924a.14.14,0,0,0-.14.14v.121H7.433v-.121a.14.14,0,0,0-.14-.14H6.662a.14.14,0,0,0-.14.14v.121H6.171v-.121a.14.14,0,0,0-.14-.14H5.4a.14.14,0,0,0-.14.14v.121H4.909v-.121a.14.14,0,0,0-.14-.14H4.137a.14.14,0,0,0-.14.14v.121H3.646v-.121a.14.14,0,0,0-.14-.14H2.875a.14.14,0,0,0-.14.14v.121H2.384v-.121a.14.14,0,0,0-.14-.14H1.613a.14.14,0,0,0-.14.14v.121H1.122v-.121a.14.14,0,0,0-.14-.14H.351a.14.14,0,0,0-.14.14v.121H0v-1.4a1.473,1.473,0,0,1,1.472-1.472Zm14.447,9.545H1.472A1.473,1.473,0,0,1,0,123.558v-1.4H.21v.121a.14.14,0,0,0,.14.14H.982a.14.14,0,0,0,.14-.14v-.121h.351v.121a.14.14,0,0,0,.14.14h.631a.14.14,0,0,0,.14-.14v-.121h.351v.121a.14.14,0,0,0,.14.14h.631a.14.14,0,0,0,.14-.14v-.121H4v.121a.14.14,0,0,0,.14.14h.631a.14.14,0,0,0,.14-.14v-.121h.351v.121a.14.14,0,0,0,.14.14h.631a.14.14,0,0,0,.14-.14v-.121h.351v.121a.14.14,0,0,0,.14.14h.631a.14.14,0,0,0,.14-.14v-.121h.351v.121a.14.14,0,0,0,.14.14h.631a.14.14,0,0,0,.14-.14v-.121h.351v.121a.14.14,0,0,0,.14.14h.631a.14.14,0,0,0,.14-.14v-.121h.351v.121a.14.14,0,0,0,.14.14h.631a.14.14,0,0,0,.14-.14v-.121h.351v.121a.14.14,0,0,0,.14.14h.631a.14.14,0,0,0,.14-.14v-.121h.351v.121a.14.14,0,0,0,.14.14H13.6a.14.14,0,0,0,.14-.14v-.121h.351v.121a.14.14,0,0,0,.14.14h.631a.14.14,0,0,0,.14-.14v-.121h.351v.121a.14.14,0,0,0,.14.14h.631a.14.14,0,0,0,.14-.14v-.121h.351v.121a.14.14,0,0,0,.14.14h.631v1.136A1.473,1.473,0,0,1,15.919,125.029Zm-6.049-5.894H9.432a.14.14,0,0,0-.14.141,2.014,2.014,0,0,1-.2,1.043v-1.044a.14.14,0,0,0-.14-.14h-.5a.14.14,0,0,0-.14.14v1.044a2.013,2.013,0,0,1-.2-1.043.14.14,0,0,0-.14-.141H7.521a.14.14,0,0,0-.137.111,2.117,2.117,0,0,0-.045.434,1.557,1.557,0,0,0,1.356,1.7,1.557,1.557,0,0,0,1.357-1.7,2.114,2.114,0,0,0-.045-.435.14.14,0,0,0-.137-.111ZM8.7,121.1a1.283,1.283,0,0,0,1.076-1.416,1.853,1.853,0,0,0-.019-.266h-.18a1.514,1.514,0,0,1-.549,1.364.14.14,0,0,1-.213-.12v-1.244H8.592v1.244a.14.14,0,0,1-.213.12,1.514,1.514,0,0,1-.549-1.364H7.638a1.853,1.853,0,0,0-.019.265A1.283,1.283,0,0,0,8.7,121.1Z" fill="#15ac8b" fill-rule="evenodd"/>
  </g>
</svg>
