<svg id="svgexport-17_25_" data-name="svgexport-17 (25)" xmlns="http://www.w3.org/2000/svg" width="27.625" height="27.625" viewBox="0 0 27.625 27.625">
  <path id="Path_26035" data-name="Path 26035" d="M15.485,0a.809.809,0,0,0-.809.809V12.194a.809.809,0,0,0,.809.809H26.816a.809.809,0,0,0,.809-.809A12.2,12.2,0,0,0,15.485,0Zm1.5,25.81L13.057,15.284V4.1a.809.809,0,0,0-.809-.809A12.246,12.246,0,0,0,0,15.431,12.292,12.292,0,0,0,12.248,27.625a12.081,12.081,0,0,0,4.263-.772A.81.81,0,0,0,16.984,25.81Z"/>
  <path id="Path_26036" data-name="Path 26036" d="M284.137,271H272.807a.81.81,0,0,0-.758,1.094l3.979,10.664a.81.81,0,0,0,1.043.473,12.279,12.279,0,0,0,7.876-11.421A.809.809,0,0,0,284.137,271Z" transform="translate(-257.321 -256.378)" fill="#15ac8b"/>
</svg>
