<svg xmlns="http://www.w3.org/2000/svg" width="16.155" height="12.924" viewBox="0 0 16.155 12.924">
  <g id="svgexport-17_7_" data-name="svgexport-17 (7)" transform="translate(0 -47.104)">
    <path id="Path_26075" data-name="Path 26075" d="M14.223,49.352H12.538l-.931-1.4a1.934,1.934,0,0,0-1.6-.843H6.146a1.934,1.934,0,0,0-1.6.843l-.931,1.4H1.931A1.926,1.926,0,0,0,0,51.283V58.1a1.926,1.926,0,0,0,1.932,1.932H14.223A1.926,1.926,0,0,0,16.155,58.1V51.283a1.926,1.926,0,0,0-1.932-1.932Zm-6.146,9.1a4.346,4.346,0,1,1,4.355-4.337A4.354,4.354,0,0,1,8.077,58.448Zm5.9-6.374H13.2a.571.571,0,0,1,0-1.141h.7a.57.57,0,0,1,.6.544A.556.556,0,0,1,13.977,52.073Z" transform="translate(0)" fill="#15ac8b"/>
    <path id="Path_26076" data-name="Path 26076" d="M167.287,180.736a2.415,2.415,0,1,0,2.423,2.406A2.428,2.428,0,0,0,167.287,180.736Z" transform="translate(-159.21 -129.049)" fill="#15ac8b"/>
  </g>
</svg>
