<svg xmlns="http://www.w3.org/2000/svg" width="29.417" height="29.417" viewBox="0 0 29.417 29.417">
  <g id="svgexport-17_22_" data-name="svgexport-17 (22)" transform="translate(-0.001)">
    <path id="Path_26024" data-name="Path 26024" d="M57.607,12.254l-12-12a.862.862,0,0,0-1.219,0l-12,12a.862.862,0,0,0-.252.609V28.556a.862.862,0,0,0,.862.862H57a.862.862,0,0,0,.862-.862V12.863A.863.863,0,0,0,57.607,12.254Z" transform="translate(-30.288 -0.001)"/>
    <path id="Path_26025" data-name="Path 26025" d="M268.588,12.253l-12-12A.862.862,0,0,0,255.978,0h0V29.417h12a.862.862,0,0,0,.862-.862V12.862A.862.862,0,0,0,268.588,12.253Z" transform="translate(-241.269)"/>
    <path id="Path_26026" data-name="Path 26026" d="M28.555,15.57a.859.859,0,0,1-.609-.252L14.709,2.081,1.472,15.318A.862.862,0,0,1,.253,14.1L14.1.253a.862.862,0,0,1,1.219,0L29.165,14.1a.862.862,0,0,1-.609,1.471Z" transform="translate(0 0)"/>
    <path id="Path_26027" data-name="Path 26027" d="M156.2,210.545a4.109,4.109,0,0,0-5.2-.5,4.107,4.107,0,0,0-5.2,6.308l0,0,4.587,4.587a.862.862,0,0,0,1.219,0l4.58-4.58.021-.022A4.111,4.111,0,0,0,156.2,210.545Z" transform="translate(-136.293 -197.314)" fill="#15ac8b"/>
    <path id="Path_26028" data-name="Path 26028" d="M270.435,14.1,256.589.253A.859.859,0,0,0,255.978,0V2.083h0l13.237,13.237a.862.862,0,0,0,1.219-1.219Z" transform="translate(-241.27 -0.001)"/>
    <path id="Path_26029" data-name="Path 26029" d="M255.977,221.192a.859.859,0,0,0,.609-.252l4.58-4.58.021-.022a4.107,4.107,0,0,0-5.211-6.3h0v11.152Z" transform="translate(-241.268 -197.313)" fill="#15ac8b"/>
  </g>
</svg>
