<svg xmlns="http://www.w3.org/2000/svg" width="10.936" height="10.936" viewBox="0 0 10.936 10.936">
  <g id="svgexport-17_8_" data-name="svgexport-17 (8)" transform="translate(1.043 2.394)">
    <path id="Path_25645" data-name="Path 25645" d="M.912,0H4.7a1.269,1.269,0,0,1,.778.322L10.67,5.517a.914.914,0,0,1,0,1.289L6.8,10.672a.913.913,0,0,1-1.288,0L.322,5.48A1.27,1.27,0,0,1,0,4.7V.913A.914.914,0,0,1,.912,0ZM2.734,3.647a.911.911,0,1,0-.912-.911A.912.912,0,0,0,2.734,3.647Z" transform="translate(-1.043 -2.396)" fill="#6c6c6c"/>
  </g>
</svg>
