<svg xmlns="http://www.w3.org/2000/svg" width="19.409" height="22.083" viewBox="0 0 19.409 22.083">
  <g id="svgexport-17_1_" data-name="svgexport-17 (1)" transform="translate(-46)">
    <path id="Path_25638" data-name="Path 25638" d="M40.7,0a5.823,5.823,0,1,0,5.823,5.823A5.829,5.829,0,0,0,40.7,0Zm7.244,15.449A8.3,8.3,0,0,0,42,12.939H39.41a8.3,8.3,0,0,0-5.951,2.51A8.486,8.486,0,0,0,31,21.436a.647.647,0,0,0,.647.647H49.762a.647.647,0,0,0,.647-.647A8.486,8.486,0,0,0,47.949,15.449Z" transform="translate(15 0)" fill="#15ac8b"/>
  </g>
</svg>
