<svg xmlns="http://www.w3.org/2000/svg" width="14.586" height="14.585" viewBox="0 0 14.586 14.585">
  <g id="svgexport-17_6_" data-name="svgexport-17 (6)" transform="translate(0 -0.019)">
    <path id="Path_25642" data-name="Path 25642" d="M5.824.019H2.511v2.02l3.312-.552Zm7.292,13.73V4.186H7.72v9.563H6.866V2.18l-5.4.9v10.67H0V14.6H14.586v-.855Zm-2.11-8.334h.908V6.27h-.908Zm0,2.084h.908v.855h-.908Zm0,2.083h.908v.855h-.908Zm0,2.084h.908v.855h-.908ZM8.922,5.415H9.83V6.27H8.922Zm0,2.084H9.83v.855H8.922Zm0,2.083H9.83v.855H8.922Zm0,2.084H9.83v.855H8.922ZM4.755,3.331h.908v.855H4.755Zm0,2.083h.908V6.27H4.755Zm0,2.084h.908v.855H4.755Zm0,2.083h.908v.855H4.755ZM2.672,5.415H3.58V6.27H2.672Zm0,2.084H3.58v.855H2.672Zm0,2.083H3.58v.855H2.672ZM2.7,11.665H5.637v2.083H4.782V12.52H3.553v1.229H2.7Z" transform="translate(0 0)" fill="#6c6c6c"/>
  </g>
</svg>
