<svg xmlns="http://www.w3.org/2000/svg" width="21.917" height="22.083" viewBox="0 0 21.917 22.083">
  <g id="svgexport-17_3_" data-name="svgexport-17 (3)" transform="translate(-12.834 -11)">
    <path id="Path_25636" data-name="Path 25636" d="M21.756,16.176l-.542-.542-.542.542Zm3.756,13.883H24.23v1.162h1.282Zm2,0H26.233v1.162h1.282Zm-2-2.6H24.23V26.293h1.282Zm2,0H26.233V26.293h1.282Zm-1.282.721h1.282v1.162H26.233Zm-2,0h1.282v1.162H24.23Zm0-4.952h3.286v.442H24.23Zm7.442,2.009H30.389v1.162h1.282Zm2,0H32.393v1.162h1.282Zm-2-2.6H30.389V21.466h1.282Zm2,0H32.393V21.466h1.282Zm-1.282.721h1.282v1.162H32.393Zm-2,0h1.282v1.162H30.389Zm-1.076,9.734V19.707h5.439V33.083H33.428V29.336a.67.67,0,0,0-.7-.631H31.336a.67.67,0,0,0-.7.631v3.746Zm1.076-14.561h3.286v.464H30.389Zm-1.8,14.561H23.153v-8.7h5.439ZM22.717,16.117l.542-.542H22.174Zm2.045.059-.542-.542-.542.542Zm2.422-.5-.5.5h1.1Zm-1.461.442.542-.542H25.18Zm-5.545-1.444h4.642L20.178,12.44Zm-2.086,0h1.184V11.9h-.435Zm1.125,14.254-1.5-1.5v3Zm.059-3.96v3l-1.5-1.5Zm-.059-.961-1.5-1.5v3Zm.059-3.96v3l-1.5-1.5Zm-.059-.96-1.5-1.5v3Zm-.99-2.009h1.049v1.049Zm.941-1.5.542.542.542-.542Zm-.418.6-.542-.542-.542.542Zm-1.994-.111.491-.491h-.826Zm-.794-1.392v-.092a.27.27,0,0,0-.083-.194l1.735-1.4-.455,1.684Zm1.814,16.714,1.5-1.5v1.5Zm-1.908,0h.947V17.077h-.853v.092a.271.271,0,0,1-.27.27H13.1a.271.271,0,0,1-.27-.27V14.581a.271.271,0,0,1,.27-.27h1.724l3.105-2.5.128-.473A.45.45,0,0,1,18.5,11h1.23a.451.451,0,0,1,.451.451v.192l6.3,3.03h.75a.449.449,0,0,1,.308.122l1.777,1.486a.45.45,0,0,1-.289.795H27.517V18.8H28.1a.181.181,0,0,1,.18.18V20.87a.181.181,0,0,1-.18.18H26.21a.181.181,0,0,1-.18-.18V18.977a.181.181,0,0,1,.18-.18H26.8v-1.72H20.178v14.31h.947a.181.181,0,0,1,.18.18V32.9a.181.181,0,0,1-.18.18H15.869a.181.181,0,0,1-.18-.18V31.568A.181.181,0,0,1,15.869,31.387Z" transform="translate(0 0)" fill="#b3b3b3" fill-rule="evenodd"/>
  </g>
</svg>
