<svg xmlns="http://www.w3.org/2000/svg" width="20.832" height="20.832" viewBox="0 0 20.832 20.832">
  <g id="svgexport-17_22_" data-name="svgexport-17 (22)" transform="translate(-515 17.5)">
    <path id="Path_26248" data-name="Path 26248" d="M5.223,126.952H4.289a.613.613,0,0,0-.563.371L1.14,133.344l6.142-3.137A28.963,28.963,0,0,1,5.223,126.952Zm11.882.371a.613.613,0,0,0-.563-.371h-.934a32.771,32.771,0,0,1-3.805,5.484,1.842,1.842,0,0,1-2.774,0c-.075-.086-.466-.538-1-1.234l-1.107.566,4.189,4.18,7.936-4.115ZM.384,135.1l-.334.778a.612.612,0,0,0,.563.852H9.607a2.487,2.487,0,0,1,.359-.2l-4.195-4.186Zm20.4.778-1.255-2.922-7.28,3.774h7.972A.612.612,0,0,0,20.782,135.882Zm-9.753-14.474a.613.613,0,1,0-.613.611A.613.613,0,0,0,11.029,121.408Zm0,0" transform="translate(515 -133.403)" fill="#b3b3b3"/>
    <path id="Path_26249" data-name="Path 26249" d="M126.453,16.189c.206-.237,5.052-5.842,5.052-9.695,0-7.945-11.028-8.042-11.028,0,0,3.853,4.845,9.458,5.052,9.695A.614.614,0,0,0,126.453,16.189Zm-2.3-10.184a1.838,1.838,0,1,1,1.838,1.834A1.838,1.838,0,0,1,124.153,6.005Zm0,0" transform="translate(399.425 -18)" fill="#b3b3b3"/>
  </g>
</svg>
