<svg xmlns="http://www.w3.org/2000/svg" width="108.207" height="99.136" viewBox="0 0 108.207 99.136">
  <g id="svgexport-18" transform="translate(0 -21.461)">
    <path id="Path_26274" data-name="Path 26274" d="M107.056,84.118a6.688,6.688,0,0,0-9.237-1.786L84.009,91.573l-.04-28.766,4.8,4.494a5.462,5.462,0,0,0,3.747,1.481h.008a5.5,5.5,0,0,0,3.994-1.734,5.482,5.482,0,0,0-.253-7.749l-9.1-8.52a1.545,1.545,0,1,0-2.112,2.255l9.1,8.52a2.393,2.393,0,0,1-1.634,4.14h0a2.383,2.383,0,0,1-1.635-.647h0L54.764,31.215a1.544,1.544,0,0,0-2.115,0L16.628,65.151a2.393,2.393,0,0,1-3.282-3.484L52.059,25.2a2.4,2.4,0,0,1,3.277,0L77.985,46.411A1.545,1.545,0,1,0,80.1,44.156L57.448,22.939a5.491,5.491,0,0,0-7.507.01L37.548,34.624l0-2.082a2.457,2.457,0,0,0-2.457-2.454h0l-8.865.012a2.457,2.457,0,0,0-2.453,2.461l.025,15.024L11.228,59.419a5.482,5.482,0,0,0,3.6,9.47l.168,0A5.442,5.442,0,0,0,18.746,67.4l4.787-4.509.019,13.587a32.545,32.545,0,0,0-4.69-.344H16.22v-.926a5.645,5.645,0,0,0-5.639-5.639H5.639A5.645,5.645,0,0,0,0,75.208v24.2a1.544,1.544,0,0,0,3.089,0v-24.2a2.553,2.553,0,0,1,2.55-2.55h4.942a2.553,2.553,0,0,1,2.55,2.55v36.575a2.553,2.553,0,0,1-2.55,2.55H5.639a2.553,2.553,0,0,1-2.55-2.55v-2.7a1.544,1.544,0,1,0-3.089,0v2.7a5.645,5.645,0,0,0,5.639,5.639h4.942a5.645,5.645,0,0,0,5.639-5.639v-.21l22.619,8.565q.063.024.127.042a10.787,10.787,0,0,0,2.937.417,10,10,0,0,0,1.562-.122l33.24-4.792.023,0a16.273,16.273,0,0,0,7.71-3.455l.057-.049,21.475-19.314A6.689,6.689,0,0,0,107.056,84.118Zm-72.6-50.94.007,4.352-7.59,7.15-.019-11.491Zm19.254,1.284L80.876,59.91l.047,33.729L76.55,96.565l-4.631-.26-.122-1.23a9.781,9.781,0,0,0-7.858-8.649l-.028-20.066a2.8,2.8,0,0,0-2.8-2.791h0l-14.721.021a2.8,2.8,0,0,0-2.791,2.8l.025,17.5a29.353,29.353,0,0,1-8.3-3.29q-.487-.284-.984-.552c-.129-.07-.26-.135-.39-.2-.2-.105-.4-.211-.605-.312-.162-.08-.326-.156-.489-.234s-.346-.165-.52-.245-.357-.157-.535-.235c-.163-.071-.327-.142-.491-.209-.184-.076-.369-.149-.554-.221-.164-.064-.329-.128-.494-.19q-.275-.1-.552-.2-.8-.284-1.623-.525c-.164-.048-.327-.1-.492-.142q-.323-.089-.647-.171c-.1-.026-.2-.055-.3-.081l-.024-17.093L53.711,34.462ZM60.85,86.04,47.932,84.553l-1.217-.14L46.69,66.679l14.133-.02Zm43.061,4.519-21.454,19.3a13.18,13.18,0,0,1-6.205,2.773l-33.226,4.789-.021,0-.023,0a7.364,7.364,0,0,1-3.116-.2L16.22,108.269V79.223h2.643a29.493,29.493,0,0,1,6.9.822c.267.064.534.131.8.2l.07.019q.4.109.8.23l.142.043q.422.13.839.273l.086.03q.918.317,1.813.694.435.183.865.38.4.186.8.384l.094.046q.39.195.774.4l.145.079c.259.141.516.285.771.434A32.445,32.445,0,0,0,45.654,87.4l.04.005L63,89.4a6.7,6.7,0,0,1,5.516,4.86,6.786,6.786,0,0,1,.208,1.124l.069.691L36.36,93.231a1.544,1.544,0,1,0-.27,3.077l34.289,3H70.4l.024,0,6.466.363.086,0c.031,0,.061,0,.091-.007s.069,0,.1-.008.091-.016.136-.026.065-.012.1-.022a1.5,1.5,0,0,0,.145-.053c.026-.01.052-.018.078-.03a1.525,1.525,0,0,0,.209-.117l5.489-3.673h0L99.539,84.9a3.585,3.585,0,0,1,4.372,5.662Z" fill="#b3b3b3"/>
  </g>
</svg>
