<svg xmlns="http://www.w3.org/2000/svg" width="16.432" height="12.307" viewBox="0 0 16.432 12.307">
  <g id="svgexport-6_-_2022-09-04T145950.967" data-name="svgexport-6 - 2022-09-04T145950.967" transform="translate(0 0)">
    <g id="Group_68077" data-name="Group 68077" transform="translate(0 0)">
      <path id="Path_833" data-name="Path 833" d="M0,352.914v1.031a.481.481,0,1,0,.963,0v-.55H15.469v.55a.481.481,0,1,0,.963,0v-2.612H0Z" transform="translate(0 -342.12)" fill="#676767"/>
      <path id="Path_834" data-name="Path 834" d="M14.662,224.933H1.771A1.773,1.773,0,0,0,0,226.7v1.323H16.432V226.7a1.773,1.773,0,0,0-1.771-1.771Z" transform="translate(0 -219.777)" fill="#676767"/>
      <path id="Path_835" data-name="Path 835" d="M175.408,158.533a.809.809,0,0,0-.808.808v.361h5.225v-.361a.809.809,0,0,0-.808-.808Z" transform="translate(-168.996 -155.508)" fill="#676767"/>
      <path id="Path_836" data-name="Path 836" d="M66.846,68.1a1.773,1.773,0,0,1,1.771-1.771h3.61A1.772,1.772,0,0,1,74,68.1v.361h2.578V66.036a1.773,1.773,0,0,0-1.771-1.77H66.038a1.772,1.772,0,0,0-1.771,1.77V68.46h2.578Z" transform="translate(-62.205 -64.266)" fill="#676767"/>
    </g>
  </g>
</svg>
