<svg id="svgexport-6_-_2022-09-04T145950.967" data-name="svgexport-6 - 2022-09-04T145950.967" xmlns="http://www.w3.org/2000/svg" width="10.028" height="7.511" viewBox="0 0 10.028 7.511">
  <g id="Group_68077" data-name="Group 68077" transform="translate(0 0)">
    <path id="Path_833" data-name="Path 833" d="M0,352.3v.629a.294.294,0,0,0,.588,0v-.336H9.441v.336a.294.294,0,0,0,.588,0v-1.594H0Z" transform="translate(0 -345.71)" fill="#676767"/>
    <path id="Path_834" data-name="Path 834" d="M8.948,224.933H1.081A1.082,1.082,0,0,0,0,226.014v.808H10.028v-.808a1.082,1.082,0,0,0-1.081-1.081Z" transform="translate(0 -221.786)" fill="#676767"/>
    <path id="Path_835" data-name="Path 835" d="M175.093,158.533a.493.493,0,0,0-.493.493v.22h3.189v-.22a.493.493,0,0,0-.493-.493Z" transform="translate(-171.18 -156.687)" fill="#676767"/>
    <path id="Path_836" data-name="Path 836" d="M65.841,66.605a1.082,1.082,0,0,1,1.081-1.081h2.2a1.082,1.082,0,0,1,1.081,1.081v.22h1.573V65.347A1.082,1.082,0,0,0,70.7,64.266h-5.35a1.082,1.082,0,0,0-1.081,1.081v1.479h1.573Z" transform="translate(-63.009 -64.266)" fill="#676767"/>
  </g>
</svg>
