<svg xmlns="http://www.w3.org/2000/svg" width="27.929" height="27.807" viewBox="0 0 27.929 27.807">
  <g id="svgexport-17_20_" data-name="svgexport-17 (20)" transform="translate(0 -4)">
    <path id="Path_26021" data-name="Path 26021" d="M10.2,24.393A10.2,10.2,0,0,1,3,6.979a10.214,10.214,0,0,1,14.419,0A10.2,10.2,0,0,1,10.2,24.393Zm0-2.291a7.913,7.913,0,1,1,5.6-2.308A7.873,7.873,0,0,1,10.2,22.1Zm9.411,3.257a.508.508,0,0,1-.36-.147l-2.193-2.193a9.473,9.473,0,0,0,1.047-.933,9.736,9.736,0,0,0,1.015-1.162l2.209,2.209a.494.494,0,0,1,0,.7.528.528,0,0,1-.344.131.457.457,0,0,1-.295-.1l-.638.786a.508.508,0,0,1-.1.556A.5.5,0,0,1,19.607,25.358Z" fill-rule="evenodd"/>
    <path id="Path_26022" data-name="Path 26022" d="M298.03,394.767a2.053,2.053,0,0,1-1.489-.622l-4.615-4.6a2.154,2.154,0,0,1,0-3,2.134,2.134,0,0,1,3.011,0l4.6,4.6a2.134,2.134,0,0,1,0,3A2.09,2.09,0,0,1,298.03,394.767Zm-18.92-14.3a4.682,4.682,0,0,1,0-6.628.5.5,0,0,0,0-.687.494.494,0,0,0-.7,0,5.66,5.66,0,0,0,0,8,.5.5,0,0,0,.344.147.491.491,0,0,0,.36-.835Z" transform="translate(-272.221 -362.961)" fill="#15ac8b" fill-rule="evenodd"/>
  </g>
</svg>
