<svg xmlns="http://www.w3.org/2000/svg" width="15.712" height="15.629" viewBox="0 0 15.712 15.629">
  <path id="Path_26246" data-name="Path 26246" d="M7.461,18.922A7.461,7.461,0,0,1,2.192,6.18a7.474,7.474,0,0,1,10.551,0A7.467,7.467,0,0,1,7.461,18.922Zm0-1.677a5.79,5.79,0,1,1,4.1-1.689A5.761,5.761,0,0,1,7.461,17.245Zm6.886,2.383a.372.372,0,0,1-.263-.108l-1.6-1.6a6.932,6.932,0,0,0,.766-.683,7.124,7.124,0,0,0,.743-.85L15.6,18a.361.361,0,0,1,0,.515.386.386,0,0,1-.251.1.334.334,0,0,1-.216-.072l-.467.575a.372.372,0,0,1-.072.407A.365.365,0,0,1,14.347,19.629Z" transform="translate(0 -4)" fill="#b3b3b3" fill-rule="evenodd"/>
</svg>
