<svg xmlns="http://www.w3.org/2000/svg" width="21.241" height="22.364" viewBox="0 0 21.241 22.364">
  <path id="Path_26235" data-name="Path 26235" d="M27.116.721s.779,2.26.779,2.259a8.868,8.868,0,0,1,1.823,1.054l2.348-.456a.782.782,0,0,1,.736.253A11.191,11.191,0,0,1,34.955,7.56a.78.78,0,0,1-.149.765s-1.568,1.8-1.568,1.8a8.916,8.916,0,0,1,0,2.106l1.568,1.8a.78.78,0,0,1,.149.765A11.191,11.191,0,0,1,32.8,18.533a.782.782,0,0,1-.736.253l-2.347-.456a8.876,8.876,0,0,1-1.824,1.053l-.779,2.26a.781.781,0,0,1-.587.512,11.192,11.192,0,0,1-4.306,0,.781.781,0,0,1-.587-.512s-.779-2.26-.779-2.259a8.866,8.866,0,0,1-1.823-1.054l-2.348.456a.781.781,0,0,1-.736-.253A11.191,11.191,0,0,1,13.8,14.8a.78.78,0,0,1,.149-.765s1.568-1.8,1.568-1.8a8.918,8.918,0,0,1,0-2.106l-1.568-1.8A.78.78,0,0,1,13.8,7.56,11.192,11.192,0,0,1,15.95,3.831a.781.781,0,0,1,.736-.253l2.347.456a8.877,8.877,0,0,1,1.824-1.053l.779-2.26A.781.781,0,0,1,22.223.21a11.192,11.192,0,0,1,4.306,0,.781.781,0,0,1,.587.512Zm-2.74,5.862a4.6,4.6,0,1,0,4.6,4.6A4.6,4.6,0,0,0,24.376,6.584Zm0,1.56a3.038,3.038,0,1,1-3.038,3.038A3.04,3.04,0,0,1,24.376,8.144Z" transform="translate(-13.755 0)" fill="#b3b3b3" fill-rule="evenodd"/>
</svg>
