<svg xmlns="http://www.w3.org/2000/svg" width="24.796" height="26.106" viewBox="0 0 24.796 26.106">
  <g id="Group_76630" data-name="Group 76630" transform="translate(-301.518 -239)">
    <path id="Path_26023" data-name="Path 26023" d="M29.352.842s.909,2.639.909,2.637a10.351,10.351,0,0,1,2.129,1.23l2.74-.532a.912.912,0,0,1,.86.3A13.064,13.064,0,0,1,38.5,8.825a.911.911,0,0,1-.174.892s-1.83,2.107-1.83,2.105a10.409,10.409,0,0,1,0,2.459l1.83,2.107a.911.911,0,0,1,.174.892,13.063,13.063,0,0,1-2.512,4.353.912.912,0,0,1-.86.3L32.391,21.4a10.361,10.361,0,0,1-2.13,1.229l-.909,2.639a.911.911,0,0,1-.685.6,13.064,13.064,0,0,1-5.027,0,.911.911,0,0,1-.685-.6s-.909-2.639-.909-2.637a10.349,10.349,0,0,1-2.129-1.23l-2.74.532a.912.912,0,0,1-.86-.3A13.064,13.064,0,0,1,13.8,17.281a.911.911,0,0,1,.174-.892s1.83-2.107,1.83-2.105a10.41,10.41,0,0,1,0-2.459l-1.83-2.107a.911.911,0,0,1-.174-.892,13.065,13.065,0,0,1,2.512-4.353.912.912,0,0,1,.86-.3l2.739.532a10.362,10.362,0,0,1,2.13-1.229L22.955.842a.911.911,0,0,1,.685-.6,13.064,13.064,0,0,1,5.027,0,.911.911,0,0,1,.685.6Zm-3.2,6.843a5.368,5.368,0,1,0,5.368,5.368A5.371,5.371,0,0,0,26.153,7.685Zm0,1.821a3.547,3.547,0,1,1-3.547,3.547A3.549,3.549,0,0,1,26.153,9.507Z" transform="translate(287.763 239)" fill-rule="evenodd"/>
    <circle id="Ellipse_40" data-name="Ellipse 40" cx="5.606" cy="5.606" r="5.606" transform="translate(308.31 246.207)" fill="#15ac8b"/>
  </g>
</svg>
