<svg xmlns="http://www.w3.org/2000/svg" width="20" height="16" viewBox="0 0 20 16">
  <g id="svgexport-17" transform="translate(-2 -4)">
    <path id="Path_26254" data-name="Path 26254" d="M17.293,4.293a1,1,0,0,0,0,1.414L18.586,7H13a4,4,0,0,0-4,4v1a1,1,0,0,0,2,0V11a2,2,0,0,1,2-2h5.586l-1.293,1.293a1,1,0,1,0,1.414,1.414l3-3a1,1,0,0,0,0-1.414l-3-3a1,1,0,0,0-1.414,0ZM14,11a1,1,0,0,0-1,1v1a2,2,0,0,1-2,2H5.414l1.293-1.293a1,1,0,1,0-1.414-1.414l-3,3a1,1,0,0,0,0,1.414l3,3a1,1,0,1,0,1.414-1.414L5.414,17H11a4,4,0,0,0,4-4V12A1,1,0,0,0,14,11Z" fill-rule="evenodd"/>
  </g>
</svg>
