<svg xmlns="http://www.w3.org/2000/svg" width="19.442" height="15.796" viewBox="0 0 19.442 15.796">
  <path id="Path_26091" data-name="Path 26091" d="M19.442,49.87a8.31,8.31,0,0,1-2.3.629A3.963,3.963,0,0,0,18.9,48.3a7.965,7.965,0,0,1-2.527.965,3.985,3.985,0,0,0-6.894,2.725,4.1,4.1,0,0,0,.092.909,11.281,11.281,0,0,1-8.215-4.169,3.987,3.987,0,0,0,1.225,5.327,3.936,3.936,0,0,1-1.8-.491v.044a4,4,0,0,0,3.193,3.916,3.978,3.978,0,0,1-1.045.131,3.524,3.524,0,0,1-.755-.068A4.024,4.024,0,0,0,5.9,60.362a8.008,8.008,0,0,1-4.942,1.7A7.465,7.465,0,0,1,0,62.008,11.221,11.221,0,0,0,6.114,63.8,11.266,11.266,0,0,0,17.458,52.455c0-.176-.006-.346-.015-.515A7.951,7.951,0,0,0,19.442,49.87Z" transform="translate(0 -48)" fill="#fff"/>
</svg>
