<svg xmlns="http://www.w3.org/2000/svg" width="18.563" height="19.429" viewBox="0 0 18.563 19.429">
  <g id="svgexport-17_15_" data-name="svgexport-17 (15)" transform="translate(0.003)">
    <path id="Path_26093" data-name="Path 26093" d="M11.495,10.85c-.351.15-.576.726-.8,1.02a.327.327,0,0,1-.435.1A6.212,6.212,0,0,1,7.2,9.228a.4.4,0,0,1,.047-.535A2.186,2.186,0,0,0,7.8,7.749c.132-.808-.877-3.312-2.209-2.177-3.833,3.269,6.394,11.94,8.24,7.25C14.355,11.492,12.077,10.6,11.495,10.85ZM9.279,17.732a7.394,7.394,0,0,1-3.857-1.091.784.784,0,0,0-.624-.086l-2.538.729.884-2.038a.881.881,0,0,0-.08-.847A8.212,8.212,0,0,1,1.618,9.714,7.854,7.854,0,0,1,9.279,1.7a7.854,7.854,0,0,1,7.66,8.018A7.854,7.854,0,0,1,9.279,17.732ZM9.279,0A9.516,9.516,0,0,0,0,9.714,9.967,9.967,0,0,0,1.48,14.979L.07,18.229a.88.88,0,0,0,.121.9.8.8,0,0,0,.617.3,41.289,41.289,0,0,0,4.1-1.146,8.948,8.948,0,0,0,4.372,1.146A9.517,9.517,0,0,0,18.56,9.714,9.516,9.516,0,0,0,9.279,0Z" transform="translate(0)" fill="#fff" fill-rule="evenodd"/>
  </g>
</svg>
